<?xml version="1.0" encoding="UTF-8"?>
<svg id="svg8" width="246.83mm" height="118.62mm" version="1.1" viewBox="0 0 246.82767 118.62429" xmlns="http://www.w3.org/2000/svg" xmlns:xlink="http://www.w3.org/1999/xlink">
 <defs id="defs2">
  <radialGradient id="radialGradient5440" cx="108.37" cy="250.89" r="123.41" gradientTransform="matrix(1 0 0 .4806 0 130.32)" gradientUnits="userSpaceOnUse">
   <stop id="stop5434" stop-color="#fff" offset="0"/>
   <stop id="stop5436" stop-color="#fff" stop-opacity="0" offset="1"/>
  </radialGradient>
 </defs>
 <g id="layer1" transform="translate(15.04 -191.58)">
  <ellipse id="path4487" cx="108.37" cy="250.89" rx="123.41" ry="59.312" fill="url(#radialGradient5440)" opacity=".5"/>
  <path id="path4496" d="m98.253 256.08c-0.55658-0.14516-1.1453-1.2059-1.372-2.4719-0.0903-0.5043-0.26183-3.3577-0.38121-6.3409-0.23432-5.8553-0.45198-6.842-1.8291-8.2918-1.0678-1.1242-2.0544-1.5355-3.6828-1.5355-3.3892 0-6.959 2.9124-12.37 10.092-3.5323 4.687-5.8163 7.1438-6.6413 7.1438-1.039 0-1.0372-0.0568 0.21811-7.0114 1.3418-7.4338 1.0973-12.967-0.65715-14.871-0.65246-0.70823-2.9627-1.2377-4.3033-0.98619-1.2324 0.2312-2.9916 1.5883-5.2936 4.0836-5.423 5.8785-12.115 12.646-13.624 13.779-2.1239 1.5935-5.7549 3.4037-8.7312 4.353-2.6703 0.85169-7.86 1.192-10.336 0.67777-4.4145-0.91682-8.0171-4.0848-9.5504-8.3985-0.75795-2.1323-1.2762-5.7895-1.2784-9.0219-1e-3 -1.4916-0.09117-2.7072-0.20031-2.7015-0.10914 6e-3 -1.2957 1.6429-2.6369 3.638-3.876 5.7661-9.0266 12.226-9.7477 12.226-0.68871 0-0.3961-0.63594 1.0956-2.3812 2.1682-2.5368 6.2829-8.0561 9.3694-12.568 3.6831-5.3838 10.919-15.022 11.796-15.712 0.83377-0.65584 1.652-0.72612 1.869-0.16055 0.17443 0.45456-0.38419 1.2308-3.0447 4.2306-2.321 2.617-4.5462 6.8937-5.2148 10.023-1.4812 6.9314 1.4388 13.64 7.1635 16.458 5.2116 2.5651 11.674 2.0463 16.826-1.3508 2.4583-1.6207 7.7872-6.8032 13.221-12.858 5.7838-6.4446 7.4377-7.5529 10.938-7.33 3.2523 0.2071 5.7115 2.2782 6.6417 5.5935 0.52045 1.8549 0.59074 6.8391 0.14023 9.944-0.15623 1.0767-0.2416 2.0001-0.18972 2.052 0.05188 0.0519 0.87382-0.82908 1.8265-1.9577 2.9379-3.4803 8.1402-8.3649 9.7435-9.1483 1.7363-0.84847 4.1703-1.1532 5.7653-0.72168 1.7358 0.46957 3.2953 2.0637 4.2359 4.33 0.94742 2.2827 1.6166 5.3719 1.6558 7.644 0.0158 0.91564 0.10509 2.378 0.19844 3.2497 0.32867 3.0692 1.2789 2.1374 4.6187-4.529 4.4213-8.8253 8.8172-14.969 11.798-16.49 1.5029-0.76674 3.8088-0.73491 5.3408 0.0737 2.6851 1.4172 3.5756 3.847 3.9531 10.786 0.27028 4.9684 0.51185 6.3331 1.448 8.1805 1.9792 3.9057 5.5509 4.0923 15.202 0.79426 7.1508-2.4436 8.18-2.6509 14.07-2.8338 7.6501-0.23756 10.297 0.18981 19.145 3.0908 7.6394 2.5047 13.029 3.4433 19.774 3.4433 4.0448 0 6.8094-0.33576 11.012-1.3374 4.4251-1.0546 5.8409-1.0289 4.6018 0.0836-1.1707 1.051-5.3459 2.0837-11.068 2.7376-3.3995 0.38848-4.5356 0.40885-8.1868 0.14675-6.7812-0.48678-11.209-1.4182-18.58-3.9088-6.4995-2.1959-9.836-2.8168-15.016-2.7943-5.8705 0.0255-8.8137 0.61627-14.023 2.8147-4.8417 2.0434-6.8559 2.7165-9.2341 3.0858-5.4393 0.84465-9.6534-1.4855-10.989-6.0764-0.28243-0.97081-0.64084-3.4494-0.79765-5.516-0.52572-6.929-1.8018-9.0793-5.3879-9.0793-2.3968 0-4.054 0.96496-5.8433 3.4025-1.3034 1.7756-5.2387 8.676-7.7166 13.531-1.5205 2.979-2.4602 4.4811-3.4346 5.4901-0.73779 0.76399-1.4538 1.3752-1.591 1.3584-0.13728-0.0169-0.45958-0.0855-0.71622-0.15238zm-66.728-39.174c0.25725-0.40018 0.79088-1.1443 1.1858-1.6536 1.9056-2.4574 2.3045-4.329 1.1652-5.4682-0.64729-0.64729-0.77726-0.67256-2.5797-0.50164-1.6919 0.16044-1.8406 0.1387-1.3689-0.20013 1.0351-0.74354 3.2078-1.3153 5.4707-1.4397 2.2085-0.12137 2.3223-0.0996 2.996 0.57411 0.57874 0.57874 0.66931 0.84822 0.52184 1.5528-0.40745 1.9467-2.9542 4.8741-6.0602 6.9658-1.6162 1.0884-1.9482 1.131-1.3308 0.17058z" fill="#f00" stroke-width=".26458"/>
  <g id="text4485" stroke-width=".26458" aria-label="IGREJA CRISTÃ MARANATA">
   <path id="path4541" d="m7.7565 270.06q0 0.68791 0.055033 1.0869 0.055033 0.39899 0.20638 0.61912 0.1651 0.22013 0.45402 0.28893 0.30268 0.0688 0.78422 0.0826v0.52281h-4.4577v-0.52281q0.48154-0.0138 0.77047-0.0826 0.30268-0.0825 0.46778-0.28893 0.1651-0.20637 0.22013-0.57785 0.055033-0.38523 0.055033-1.0319v-5.5859q0-0.57785-0.055033-0.94932-0.041275-0.38524-0.19262-0.60537-0.13758-0.22013-0.41275-0.30268-0.27517-0.0963-0.71543-0.12383v-0.52281h4.1825v0.52281q-0.44027 0.0138-0.71543 0.11007-0.26141 0.0963-0.41275 0.3302-0.13758 0.22013-0.19262 0.61912-0.041275 0.399-0.041275 1.0181z" style="font-feature-settings:normal;font-variant-caps:normal;font-variant-ligatures:normal;font-variant-numeric:normal"/>
   <path id="path4543" d="m15.604 272.8q-1.1695 0-2.105-0.37148-0.93557-0.37147-1.596-1.0456-0.6604-0.68792-1.0181-1.6648-0.34396-0.97684-0.34396-2.1738 0-1.252 0.38523-2.2839 0.38523-1.0319 1.0732-1.7748 0.70168-0.74295 1.6648-1.1419 0.97684-0.41275 2.1463-0.41275 0.8255 0 1.5547 0.23389 0.72919 0.2339 1.5822 0.75671l0.28892-0.85301h0.48154l-0.17886 3.1644h-0.6604q0-0.67416-0.26141-1.1557-0.24765-0.4953-0.6604-0.81174t-0.94932-0.46778q-0.52282-0.15134-1.0732-0.15134-0.83926 0-1.4997 0.3302t-1.1144 0.94932q-0.45402 0.61913-0.70168 1.5134-0.23389 0.89429-0.23389 2.0225 0 2.2151 0.92181 3.4121 0.92181 1.1832 2.6691 1.1832 0.6604 0 1.1832-0.15135 0.52282-0.1651 0.88053-0.4265 0.37148-0.27517 0.55033-0.61913 0.19262-0.35772 0.19262-0.74295 0-0.79798-0.3302-1.0732-0.31644-0.28892-1.0456-0.28892v-0.52282h3.9074v0.52282q-0.3302 0-0.55033 0.055-0.22013 0.055-0.35772 0.20637-0.12382 0.13759-0.17886 0.37148-0.04127 0.23389-0.04127 0.59161v1.5409q-0.26141 0-0.48154 0.0275-0.20638 0.0138-0.44027 0.0963-0.23389 0.0688-0.52282 0.20637-0.27517 0.12383-0.6604 0.34396-0.48154 0.27517-1.1144 0.44027-0.61912 0.1651-1.3621 0.1651z" style="font-feature-settings:normal;font-variant-caps:normal;font-variant-ligatures:normal;font-variant-numeric:normal"/>
   <path id="path4545" d="m30.726 264.72q0 1.1007-0.6604 1.8299t-2.105 0.97684l3.0406 3.6597q0.37148 0.45403 0.81174 0.6604 0.45402 0.19262 1.0732 0.28893v0.52281h-2.6554l-3.3708-4.3201q-0.17886-0.2339-0.34396-0.37148-0.15134-0.13758-0.3302-0.20637-0.1651-0.0825-0.39899-0.0963-0.22013-0.0275-0.53658-0.0275v2.8617q0 0.50906 0.05503 0.83926 0.06879 0.31644 0.26141 0.4953 0.20638 0.17886 0.57785 0.24765 0.38523 0.055 1.0044 0.055v0.52281h-4.8567v-0.52281q0.48154-0.0138 0.77047-0.0826 0.30268-0.0688 0.46778-0.2339t0.22013-0.46778q0.05503-0.30268 0.05503-0.78422v-6.4114q0-0.48154-0.05503-0.77046-0.04127-0.30269-0.19262-0.46779-0.13758-0.17886-0.41275-0.23389-0.27517-0.0688-0.71543-0.0963v-0.52281h4.3201q1.8986 0 2.9305 0.70167 1.0456 0.70168 1.0456 1.9537zm-5.4758 2.2288h0.97684q1.3758 0 2.0362-0.4953 0.67416-0.50905 0.67416-1.6648 0-1.1144-0.53658-1.596-0.52282-0.48154-1.651-0.48154h-1.2658q-0.23389 0-0.23389 0.23389z" style="font-feature-settings:normal;font-variant-caps:normal;font-variant-ligatures:normal;font-variant-numeric:normal"/>
   <path id="path4547" d="m36.079 266.84q0.74295 0 1.2382-0.0825 0.50906-0.0963 0.79798-0.28893 0.30268-0.19261 0.42651-0.4953 0.13758-0.30268 0.13758-0.71543h0.48154v3.756h-0.48154q0-0.41275-0.12382-0.71543-0.11007-0.30268-0.41275-0.4953-0.28892-0.20637-0.79798-0.30268-0.4953-0.11007-1.2658-0.11007v3.1094q0 0.45403 0.11007 0.75671 0.11007 0.28893 0.37148 0.48154 0.27517 0.17886 0.71543 0.26141 0.44027 0.0688 1.0869 0.0688 0.72919 0 1.2382-0.0963 0.50906-0.11007 0.85302-0.35772 0.34396-0.24765 0.55033-0.64664 0.20638-0.41275 0.34396-1.0181h0.52282l-0.20638 2.7104h-8.5439v-0.52281q0.48154-0.0138 0.77047-0.0826 0.30268-0.0688 0.46778-0.2339t0.22013-0.46778q0.05503-0.30268 0.05503-0.78422v-6.4114q0-0.48154-0.05503-0.77046-0.04127-0.30269-0.19262-0.46779-0.13758-0.17886-0.41275-0.23389-0.27517-0.0688-0.71543-0.0963v-0.52281h7.9523l0.12382 2.4215h-0.48154q-0.08255-0.55033-0.27517-0.89429-0.17886-0.35772-0.50906-0.56409-0.31644-0.20638-0.81174-0.28893-0.4953-0.0825-1.197-0.0825h-1.7473q-0.23389 0-0.23389 0.2339z" style="font-feature-settings:normal;font-variant-caps:normal;font-variant-ligatures:normal;font-variant-numeric:normal"/>
   <path id="path4549" d="m44.493 264.16q0-0.48154-0.05503-0.77046-0.04127-0.30269-0.19262-0.46779-0.13758-0.17886-0.41275-0.23389-0.27517-0.0688-0.71543-0.0963v-0.52281h4.1825v0.52281q-0.44027 0.0138-0.71543 0.0826-0.26141 0.0688-0.41275 0.24765-0.13758 0.17886-0.19262 0.4953-0.04127 0.31644-0.04127 0.83926v8.4339q0 1.7336-0.72919 2.6416-0.72919 0.90805-2.1325 0.90805-0.94932 0-1.5134-0.37148-0.57785-0.35771-0.57785-0.96308 0-0.35772 0.19262-0.55033 0.17886-0.17886 0.50906-0.17886 0.26141 0 0.42651 0.12382 0.15134 0.13759 0.35772 0.52282 0.23389 0.44027 0.39899 0.59161 0.17886 0.1651 0.45402 0.1651 0.56409 0 0.86678-0.60537 0.30268-0.60536 0.30268-1.7198z" style="font-feature-settings:normal;font-variant-caps:normal;font-variant-ligatures:normal;font-variant-numeric:normal"/>
   <path id="path4551" d="m54.506 268.82h-3.6735q-0.23389 0.56409-0.39899 1.0044-0.1651 0.4265-0.27517 0.74295-0.09631 0.31644-0.13758 0.53657-0.04128 0.22013-0.04128 0.35772 0 0.38523 0.24765 0.53657 0.24765 0.13759 0.8255 0.13759v0.52281h-3.3433v-0.52281q0.31644-0.0413 0.53658-0.11007 0.23389-0.0688 0.39899-0.19262 0.17886-0.12382 0.30268-0.31644 0.13758-0.20637 0.26141-0.4953l3.5772-8.9567h0.59161l3.1231 7.7597q0.31644 0.77046 0.55033 1.2382 0.23389 0.45402 0.45402 0.68791 0.22013 0.23389 0.46778 0.30269 0.26141 0.0688 0.61912 0.0688v0.53657h-4.4852v-0.53657q0.72919 0 1.0044-0.13759 0.27517-0.13758 0.27517-0.45402 0-0.13758-0.01376-0.24765-0.01376-0.12383-0.05503-0.26141-0.02752-0.13758-0.09631-0.30268-0.05503-0.17886-0.15134-0.41275zm-3.3983-0.68792h3.1369l-1.5272-4.0587z" style="font-feature-settings:normal;font-variant-caps:normal;font-variant-ligatures:normal;font-variant-numeric:normal"/>
   <path id="path4553" d="m71.272 262.07h0.38523l0.12382 3.1644h-0.50906q-0.30268-1.2107-1.1695-1.8986-0.86678-0.68791-2.0913-0.68791-0.83926 0-1.4997 0.3302t-1.1144 0.94932q-0.45402 0.61913-0.70168 1.5134-0.23389 0.89429-0.23389 2.0225 0 2.2151 0.92181 3.4121 0.92181 1.1832 2.6691 1.1832 2.6554 0 3.4121-2.8205h0.56409v3.4258h-0.48154l-0.31644-1.0869q-1.4446 1.2245-3.4946 1.2245-1.1695 0-2.1188-0.37148-0.93557-0.37147-1.6097-1.0456-0.6604-0.68792-1.0319-1.6648-0.35772-0.97684-0.35772-2.1738 0-1.252 0.38523-2.2839 0.38523-1.0319 1.0732-1.7748 0.70168-0.74295 1.6648-1.1419 0.97684-0.41275 2.1463-0.41275 0.8255 0 1.5547 0.23389 0.72919 0.2339 1.5822 0.75671z" style="font-feature-settings:normal;font-variant-caps:normal;font-variant-ligatures:normal;font-variant-numeric:normal"/>
   <path id="path4555" d="m81.89 264.72q0 1.1007-0.6604 1.8299t-2.105 0.97684l3.0406 3.6597q0.37148 0.45403 0.81174 0.6604 0.45402 0.19262 1.0732 0.28893v0.52281h-2.6554l-3.3708-4.3201q-0.17886-0.2339-0.34396-0.37148-0.15134-0.13758-0.3302-0.20637-0.1651-0.0825-0.39899-0.0963-0.22013-0.0275-0.53658-0.0275v2.8617q0 0.50906 0.05503 0.83926 0.06879 0.31644 0.26141 0.4953 0.20638 0.17886 0.57785 0.24765 0.38523 0.055 1.0044 0.055v0.52281h-4.8567v-0.52281q0.48154-0.0138 0.77047-0.0826 0.30268-0.0688 0.46778-0.2339t0.22013-0.46778q0.05503-0.30268 0.05503-0.78422v-6.4114q0-0.48154-0.05503-0.77046-0.04127-0.30269-0.19262-0.46779-0.13758-0.17886-0.41275-0.23389-0.27517-0.0688-0.71543-0.0963v-0.52281h4.3201q1.8986 0 2.9305 0.70167 1.0456 0.70168 1.0456 1.9537zm-5.4758 2.2288h0.97684q1.3758 0 2.0362-0.4953 0.67416-0.50905 0.67416-1.6648 0-1.1144-0.53658-1.596-0.52282-0.48154-1.651-0.48154h-1.2658q-0.23389 0-0.23389 0.23389z" style="font-feature-settings:normal;font-variant-caps:normal;font-variant-ligatures:normal;font-variant-numeric:normal"/>
   <path id="path4557" d="m87.243 270.06q0 0.68791 0.05503 1.0869 0.05503 0.39899 0.20638 0.61912 0.1651 0.22013 0.45402 0.28893 0.30268 0.0688 0.78422 0.0826v0.52281h-4.4577v-0.52281q0.48154-0.0138 0.77047-0.0826 0.30268-0.0825 0.46778-0.28893 0.1651-0.20637 0.22013-0.57785 0.05503-0.38523 0.05503-1.0319v-5.5859q0-0.57785-0.05503-0.94932-0.04127-0.38524-0.19262-0.60537-0.13758-0.22013-0.41275-0.30268-0.27517-0.0963-0.71543-0.12383v-0.52281h4.1825v0.52281q-0.44027 0.0138-0.71543 0.11007-0.26141 0.0963-0.41275 0.3302-0.13758 0.22013-0.19262 0.61912-0.04127 0.399-0.04127 1.0181z" style="font-feature-settings:normal;font-variant-caps:normal;font-variant-ligatures:normal;font-variant-numeric:normal"/>
   <path id="path4559" d="m90.161 269.43h0.50906q0.09631 0.61913 0.35772 1.1144 0.27517 0.4953 0.67416 0.83926 0.41275 0.34396 0.93557 0.53657 0.53658 0.17886 1.1557 0.17886 1.0181 0 1.6097-0.48154t0.59161-1.307q0-0.34396-0.12382-0.63289-0.11007-0.28892-0.38523-0.55033-0.27517-0.27517-0.74295-0.53657-0.45402-0.26141-1.1557-0.5641-0.85302-0.37147-1.4309-0.71543t-0.92181-0.71543q-0.34396-0.37148-0.4953-0.78423-0.13758-0.42651-0.13758-0.96308 0-0.63288 0.22013-1.1695 0.23389-0.53657 0.64664-0.92181 0.41275-0.39899 0.97684-0.60536 0.56409-0.22014 1.2382-0.22014 0.60537 0 1.1282 0.19262 0.52282 0.19262 1.0594 0.61912l0.35772-0.61912h0.31644l0.15134 2.7379h-0.50906q-0.3302-1.1282-0.96308-1.6785-0.61912-0.55033-1.4997-0.55033-0.83926 0-1.3346 0.41275t-0.4953 1.1144q0 0.3302 0.11007 0.60537 0.11007 0.26141 0.35772 0.50906 0.24765 0.23389 0.64664 0.48154 0.39899 0.23389 0.9906 0.4953 1.0181 0.45402 1.6923 0.85302 0.67416 0.38523 1.0732 0.78422 0.39899 0.38523 0.56409 0.8255 0.1651 0.42651 0.1651 0.96308 0 0.68792-0.27517 1.2658-0.27517 0.57785-0.77047 0.9906t-1.1832 0.64664q-0.68792 0.22014-1.5134 0.22014-0.78422 0-1.4171-0.22014-0.61912-0.22013-1.2658-0.74295l-0.38523 0.67416h-0.31644z" style="font-feature-settings:normal;font-variant-caps:normal;font-variant-ligatures:normal;font-variant-numeric:normal"/>
   <path id="path4561" d="m108.94 264.7h-0.56409q-0.0413-0.59161-0.19262-0.9906-0.15134-0.39899-0.44027-0.61913-0.27516-0.23389-0.70167-0.3302-0.42651-0.0963-1.0181-0.0963-0.50906 0-0.8255 0.0275-0.30268 0.0138-0.46778 0.0688t-0.22014 0.13759q-0.0413 0.0688-0.0413 0.19261v7.3607q0 0.44027 0.055 0.75671 0.0688 0.31644 0.24765 0.52282 0.19262 0.19261 0.53658 0.30268 0.35771 0.0963 0.93556 0.11007v0.52281h-5.2006v-0.52281q0.57785-0.0138 0.93557-0.11007 0.35772-0.11007 0.53658-0.30268 0.19261-0.20638 0.24765-0.52282 0.0688-0.31644 0.0688-0.75671v-7.3607q0-0.12382-0.055-0.19261-0.0413-0.0825-0.19261-0.13759-0.13759-0.055-0.39899-0.0688-0.26141-0.0275-0.70168-0.0275-0.53657 0-1.0044 0.0413-0.45402 0.0413-0.79798 0.24765-0.3302 0.19262-0.53658 0.60537t-0.22013 1.1419h-0.50906v-2.6278h10.388z" style="font-feature-settings:normal;font-variant-caps:normal;font-variant-ligatures:normal;font-variant-numeric:normal"/>
   <path id="path4563" d="m114.89 268.82h-3.6735q-0.23389 0.56409-0.39899 1.0044-0.1651 0.4265-0.27517 0.74295-0.0963 0.31644-0.13758 0.53657-0.0413 0.22013-0.0413 0.35772 0 0.38523 0.24765 0.53657 0.24765 0.13759 0.8255 0.13759v0.52281h-3.3433v-0.52281q0.31644-0.0413 0.53658-0.11007 0.23389-0.0688 0.39899-0.19262 0.17886-0.12382 0.30268-0.31644 0.13758-0.20637 0.26141-0.4953l3.5772-8.9567h0.5916l3.1232 7.7597q0.31644 0.77046 0.55033 1.2382 0.23389 0.45402 0.45402 0.68791 0.22014 0.23389 0.46779 0.30269 0.26141 0.0688 0.61912 0.0688v0.53657h-4.4852v-0.53657q0.72919 0 1.0044-0.13759 0.27517-0.13758 0.27517-0.45402 0-0.13758-0.0138-0.24765-0.0138-0.12383-0.055-0.26141-0.0275-0.13758-0.0963-0.30268-0.055-0.17886-0.15134-0.41275zm-3.3983-0.68792h3.1369l-1.5272-4.0587zm-0.39899-7.1131q0.11006-0.70167 0.50906-1.1282 0.41275-0.44027 0.94932-0.44027 0.27517 0 0.53658 0.0963 0.27516 0.0963 0.53657 0.22013 0.27517 0.12383 0.53658 0.22014 0.2614 0.0963 0.52281 0.0963t0.39899-0.12383q0.13759-0.13758 0.24765-0.45402h0.45403q-0.0688 0.70167-0.46778 1.1694-0.38524 0.45403-0.90805 0.45403-0.27517 0-0.55034-0.0963-0.27516-0.11007-0.56409-0.23389-0.27517-0.12383-0.56409-0.22013-0.27517-0.11007-0.55033-0.11007-0.26141 0-0.399 0.12382-0.12382 0.11007-0.22013 0.42651z" style="font-feature-settings:normal;font-variant-caps:normal;font-variant-ligatures:normal;font-variant-numeric:normal"/>
   <path id="path4565" d="m129.74 270.2 3.5772-8.1312h3.0819v0.52281q-0.44027 0.0138-0.71543 0.11007-0.26141 0.0963-0.41275 0.3302-0.13759 0.22013-0.19262 0.61912-0.0413 0.399-0.0413 1.0181v5.3933q0 0.68791 0.055 1.0869 0.055 0.39899 0.20637 0.61912 0.1651 0.22013 0.45403 0.28893 0.30268 0.0688 0.78422 0.0826v0.52281h-4.4577v-0.52281q0.48155-0.0138 0.77047-0.0826 0.30268-0.0825 0.46778-0.28893 0.1651-0.20637 0.22014-0.57785 0.055-0.38523 0.055-1.0319v-6.3839h-0.13758l-4.0174 9.0255h-0.30268l-3.9486-9.0255h-0.055v6.2876q0 0.68791 0.055 1.0869 0.055 0.39899 0.20637 0.61912 0.1651 0.22013 0.45403 0.28893 0.30268 0.0688 0.78422 0.0826v0.52281h-3.8386v-0.52281q0.48154-0.0138 0.77047-0.0826 0.30268-0.0825 0.46778-0.28893 0.1651-0.20637 0.22013-0.57785 0.055-0.38523 0.055-1.0319v-5.5859q0-0.57785-0.055-0.94932-0.0413-0.38524-0.19261-0.60537-0.13759-0.22013-0.41275-0.30268-0.27517-0.0963-0.71544-0.12383v-0.52281h3.2882l3.4671 8.1312z" style="font-feature-settings:normal;font-variant-caps:normal;font-variant-ligatures:normal;font-variant-numeric:normal"/>
   <path id="path4567" d="m143.88 268.82h-3.6735q-0.2339 0.56409-0.399 1.0044-0.1651 0.4265-0.27516 0.74295-0.0963 0.31644-0.13759 0.53657-0.0413 0.22013-0.0413 0.35772 0 0.38523 0.24765 0.53657 0.24765 0.13759 0.8255 0.13759v0.52281h-3.3433v-0.52281q0.31645-0.0413 0.53658-0.11007 0.23389-0.0688 0.39899-0.19262 0.17886-0.12382 0.30268-0.31644 0.13759-0.20637 0.26141-0.4953l3.5772-8.9567h0.59161l3.1231 7.7597q0.31644 0.77046 0.55033 1.2382 0.23389 0.45402 0.45403 0.68791 0.22013 0.23389 0.46778 0.30269 0.26141 0.0688 0.61913 0.0688v0.53657h-4.4852v-0.53657q0.72919 0 1.0044-0.13759 0.27516-0.13758 0.27516-0.45402 0-0.13758-0.0137-0.24765-0.0138-0.12383-0.055-0.26141-0.0275-0.13758-0.0963-0.30268-0.055-0.17886-0.15134-0.41275zm-3.3983-0.68792h3.1369l-1.5272-4.0587z" style="font-feature-settings:normal;font-variant-caps:normal;font-variant-ligatures:normal;font-variant-numeric:normal"/>
   <path id="path4569" d="m156.83 264.72q0 1.1007-0.6604 1.8299t-2.105 0.97684l3.0406 3.6597q0.37147 0.45403 0.81174 0.6604 0.45402 0.19262 1.0732 0.28893v0.52281h-2.6554l-3.3708-4.3201q-0.17886-0.2339-0.34396-0.37148-0.15134-0.13758-0.3302-0.20637-0.1651-0.0825-0.39899-0.0963-0.22013-0.0275-0.53658-0.0275v2.8617q0 0.50906 0.055 0.83926 0.0688 0.31644 0.26141 0.4953 0.20637 0.17886 0.57785 0.24765 0.38523 0.055 1.0044 0.055v0.52281h-4.8567v-0.52281q0.48154-0.0138 0.77047-0.0826 0.30268-0.0688 0.46778-0.2339t0.22014-0.46778q0.055-0.30268 0.055-0.78422v-6.4114q0-0.48154-0.055-0.77046-0.0413-0.30269-0.19262-0.46779-0.13758-0.17886-0.41275-0.23389-0.27517-0.0688-0.71543-0.0963v-0.52281h4.3201q1.8986 0 2.9305 0.70167 1.0456 0.70168 1.0456 1.9537zm-5.4758 2.2288h0.97685q1.3758 0 2.0362-0.4953 0.67416-0.50905 0.67416-1.6648 0-1.1144-0.53658-1.596-0.52281-0.48154-1.651-0.48154h-1.2658q-0.2339 0-0.2339 0.23389z" style="font-feature-settings:normal;font-variant-caps:normal;font-variant-ligatures:normal;font-variant-numeric:normal"/>
   <path id="path4571" d="m165.33 268.82h-3.6735q-0.23389 0.56409-0.39899 1.0044-0.1651 0.4265-0.27516 0.74295-0.0963 0.31644-0.13759 0.53657-0.0413 0.22013-0.0413 0.35772 0 0.38523 0.24765 0.53657 0.24765 0.13759 0.8255 0.13759v0.52281h-3.3433v-0.52281q0.31644-0.0413 0.53658-0.11007 0.23389-0.0688 0.39899-0.19262 0.17886-0.12382 0.30268-0.31644 0.13759-0.20637 0.26141-0.4953l3.5772-8.9567h0.59161l3.1231 7.7597q0.31644 0.77046 0.55033 1.2382 0.23389 0.45402 0.45403 0.68791 0.22013 0.23389 0.46778 0.30269 0.26141 0.0688 0.61912 0.0688v0.53657h-4.4852v-0.53657q0.72919 0 1.0044-0.13759 0.27516-0.13758 0.27516-0.45402 0-0.13758-0.0138-0.24765-0.0137-0.12383-0.055-0.26141-0.0275-0.13758-0.0963-0.30268-0.055-0.17886-0.15134-0.41275zm-3.3983-0.68792h3.1369l-1.5272-4.0587z" style="font-feature-settings:normal;font-variant-caps:normal;font-variant-ligatures:normal;font-variant-numeric:normal"/>
   <path id="path4573" d="m178.77 272.8-6.5352-8.6127h-0.055v5.8748q0 0.68791 0.0413 1.0869 0.055 0.39899 0.19262 0.61912 0.15134 0.22013 0.41275 0.28893 0.27517 0.0688 0.71543 0.0826v0.52281h-3.701v-0.52281q0.48154-0.0138 0.77047-0.0826 0.30268-0.0825 0.46778-0.28893 0.1651-0.20637 0.22014-0.57785 0.055-0.38523 0.055-1.0319v-5.5859q0-0.57785-0.055-0.94932-0.0413-0.38524-0.19262-0.60537-0.13758-0.22013-0.41275-0.30268-0.27517-0.0963-0.71543-0.12383v-0.52281h2.7242l6.0124 8.0211h0.055v-5.4208q0-0.67416-0.055-1.0732-0.0413-0.41275-0.19262-0.63288-0.13758-0.22014-0.41275-0.28893-0.26141-0.0688-0.70167-0.0826v-0.52281h3.701v0.52281q-0.48154 0.0138-0.78423 0.0963-0.28892 0.0688-0.45402 0.27517t-0.22014 0.59161q-0.055 0.38523-0.055 1.0181v8.2275z" style="font-feature-settings:normal;font-variant-caps:normal;font-variant-ligatures:normal;font-variant-numeric:normal"/>
   <path id="path4575" d="m188.19 268.82h-3.6735q-0.23389 0.56409-0.39899 1.0044-0.1651 0.4265-0.27516 0.74295-0.0963 0.31644-0.13759 0.53657-0.0413 0.22013-0.0413 0.35772 0 0.38523 0.24765 0.53657 0.24765 0.13759 0.8255 0.13759v0.52281h-3.3433v-0.52281q0.31644-0.0413 0.53658-0.11007 0.23389-0.0688 0.39899-0.19262 0.17886-0.12382 0.30268-0.31644 0.13759-0.20637 0.26141-0.4953l3.5772-8.9567h0.59161l3.1231 7.7597q0.31644 0.77046 0.55033 1.2382 0.23389 0.45402 0.45403 0.68791 0.22013 0.23389 0.46778 0.30269 0.26141 0.0688 0.61912 0.0688v0.53657h-4.4852v-0.53657q0.72919 0 1.0044-0.13759 0.27516-0.13758 0.27516-0.45402 0-0.13758-0.0138-0.24765-0.0137-0.12383-0.055-0.26141-0.0275-0.13758-0.0963-0.30268-0.055-0.17886-0.15134-0.41275zm-3.3983-0.68792h3.1369l-1.5272-4.0587z" style="font-feature-settings:normal;font-variant-caps:normal;font-variant-ligatures:normal;font-variant-numeric:normal"/>
   <path id="path4577" d="m201.91 264.7h-0.56409q-0.0413-0.59161-0.19262-0.9906-0.15134-0.39899-0.44027-0.61913-0.27516-0.23389-0.70167-0.3302-0.42651-0.0963-1.0181-0.0963-0.50906 0-0.8255 0.0275-0.30268 0.0138-0.46778 0.0688t-0.22013 0.13759q-0.0413 0.0688-0.0413 0.19261v7.3607q0 0.44027 0.055 0.75671 0.0688 0.31644 0.24765 0.52282 0.19262 0.19261 0.53658 0.30268 0.35772 0.0963 0.93557 0.11007v0.52281h-5.2006v-0.52281q0.57785-0.0138 0.93556-0.11007 0.35772-0.11007 0.53658-0.30268 0.19261-0.20638 0.24765-0.52282 0.0688-0.31644 0.0688-0.75671v-7.3607q0-0.12382-0.055-0.19261-0.0413-0.0825-0.19262-0.13759-0.13758-0.055-0.39899-0.0688-0.26141-0.0275-0.70168-0.0275-0.53657 0-1.0044 0.0413-0.45402 0.0413-0.79798 0.24765-0.3302 0.19262-0.53657 0.60537-0.20638 0.41275-0.22014 1.1419h-0.50906v-2.6278h10.388z" style="font-feature-settings:normal;font-variant-caps:normal;font-variant-ligatures:normal;font-variant-numeric:normal"/>
   <path id="path4579" d="m207.86 268.82h-3.6735q-0.23389 0.56409-0.39899 1.0044-0.1651 0.4265-0.27516 0.74295-0.0963 0.31644-0.13759 0.53657-0.0413 0.22013-0.0413 0.35772 0 0.38523 0.24765 0.53657 0.24765 0.13759 0.8255 0.13759v0.52281h-3.3433v-0.52281q0.31644-0.0413 0.53658-0.11007 0.23389-0.0688 0.39899-0.19262 0.17886-0.12382 0.30268-0.31644 0.13759-0.20637 0.26141-0.4953l3.5772-8.9567h0.59161l3.1231 7.7597q0.31644 0.77046 0.55033 1.2382 0.23389 0.45402 0.45403 0.68791 0.22013 0.23389 0.46778 0.30269 0.26141 0.0688 0.61912 0.0688v0.53657h-4.4852v-0.53657q0.72919 0 1.0044-0.13759 0.27516-0.13758 0.27516-0.45402 0-0.13758-0.0138-0.24765-0.0137-0.12383-0.055-0.26141-0.0275-0.13758-0.0963-0.30268-0.055-0.17886-0.15134-0.41275zm-3.3983-0.68792h3.1369l-1.5272-4.0587z" style="font-feature-settings:normal;font-variant-caps:normal;font-variant-ligatures:normal;font-variant-numeric:normal"/>
  </g>
  <g id="text4489" fill="#d40000" stroke-width=".26458" aria-label="MAANAIM GUARAPARI">
   <path id="path4508" d="m56.798 286.25h-1.0232v-6.6301l-2.1394 4.5114h-0.60978l-2.1239-4.5114v6.6301h-0.95601v-7.6946h1.3953l2.0516 4.284 1.9844-4.284h1.4211z"/>
   <path id="path4510" d="m64.943 286.25h-1.0904l-0.75448-2.1446h-3.328l-0.75448 2.1446h-1.0387l2.8009-7.6946h1.3643zm-2.1601-3.0231-1.3488-3.7776-1.3539 3.7776z"/>
   <path id="path4512" d="m72.177 286.25h-1.0904l-0.75448-2.1446h-3.328l-0.75448 2.1446h-1.0387l2.8009-7.6946h1.3643zm-2.1601-3.0231-1.3488-3.7776-1.3539 3.7776z"/>
   <path id="path4514" d="m79.216 286.25h-1.2661l-3.6484-6.8833v6.8833h-0.95601v-7.6946h1.5865l3.328 6.2838v-6.2838h0.95601z"/>
   <path id="path4516" d="m87.329 286.25h-1.0904l-0.75448-2.1446h-3.328l-0.75448 2.1446h-1.0387l2.8009-7.6946h1.3643zm-2.1601-3.0231-1.3488-3.7776-1.3539 3.7776z"/>
   <path id="path4518" d="m91.21 286.25h-3.0386v-0.78549h1.0077v-6.1236h-1.0077v-0.78548h3.0386v0.78548h-1.0077v6.1236h1.0077z"/>
   <path id="path4520" d="m99.814 286.25h-1.0232v-6.6301l-2.1394 4.5114h-0.60978l-2.1239-4.5114v6.6301h-0.95601v-7.6946h1.3953l2.0516 4.284 1.9844-4.284h1.4211z"/>
   <path id="path4522" d="m112.03 285.68q-0.63045 0.28938-1.3798 0.50642-0.74414 0.21188-1.4418 0.21188-0.89917 0-1.6485-0.24805t-1.2764-0.74414q-0.53226-0.50126-0.82165-1.2506-0.28939-0.75447-0.28939-1.7622 0-1.8448 1.0749-2.9094 1.08-1.0697 2.9611-1.0697 0.65629 0 1.3384 0.1602 0.6873 0.15503 1.478 0.53226v1.2144h-0.093q-0.1602-0.12402-0.46509-0.32556t-0.59945-0.3359q-0.35656-0.1602-0.81132-0.26355-0.44958-0.10852-1.0232-0.10852-1.2919 0-2.0464 0.83199-0.7493 0.82682-0.7493 2.2428 0 1.4934 0.78548 2.3254 0.78548 0.82682 2.1394 0.82682 0.4961 0 0.98702-0.0982 0.49609-0.0982 0.86817-0.25322v-1.8862h-2.0619v-0.89917h3.0747z"/>
   <path id="path4524" d="m119.61 283.16q0 0.83715-0.18604 1.4624-0.18087 0.62012-0.59944 1.0335-0.39791 0.39274-0.93018 0.57361-0.53227 0.18086-1.2402 0.18086-0.72347 0-1.2609-0.1912-0.53743-0.1912-0.90434-0.56327-0.41858-0.42375-0.60461-1.0232-0.18087-0.59944-0.18087-1.4728v-4.6044h1.0232v4.656q0 0.62529 0.0827 0.98702 0.0879 0.36174 0.28938 0.65629 0.22738 0.3359 0.61495 0.50643 0.39275 0.17053 0.94052 0.17053 0.55293 0 0.94051-0.16536 0.38757-0.17053 0.62011-0.5116 0.20154-0.29455 0.28422-0.67179 0.0878-0.38241 0.0878-0.94568v-4.6819h1.0232z"/>
   <path id="path4526" d="m127.6 286.25h-1.0904l-0.75448-2.1446h-3.328l-0.75447 2.1446h-1.0387l2.8009-7.6946h1.3643zm-2.1601-3.0231-1.3488-3.7776-1.3539 3.7776z"/>
   <path id="path4528" d="m135.13 286.25h-1.3281l-2.5735-3.0592h-1.4418v3.0592h-1.0232v-7.6946h2.1549q0.69763 0 1.1627 0.093 0.46509 0.0879 0.83716 0.3204 0.41858 0.26355 0.65112 0.66662 0.23771 0.39791 0.23771 1.0129 0 0.83199-0.41858 1.3953-0.41857 0.5581-1.1524 0.84232zm-2.3926-5.5294q0-0.33073-0.11885-0.58395-0.11369-0.25838-0.38241-0.43408-0.22221-0.14986-0.5271-0.2067-0.30489-0.062-0.7183-0.062h-1.2041v2.9042h1.0335q0.48575 0 0.84749-0.0827 0.36173-0.0879 0.61495-0.3204 0.23254-0.21704 0.34106-0.49609 0.11369-0.28422 0.11369-0.7183z"/>
   <path id="path4530" d="m142.19 286.25h-1.0904l-0.75447-2.1446h-3.328l-0.75447 2.1446h-1.0387l2.8009-7.6946h1.3642zm-2.1601-3.0231-1.3488-3.7776-1.3539 3.7776z"/>
   <path id="path4532" d="m148.39 280.88q0 0.51159-0.18087 0.95084-0.1757 0.43408-0.49609 0.75448-0.39791 0.39791-0.94051 0.59944-0.5426 0.19637-1.3694 0.19637h-1.0232v2.868h-1.0232v-7.6946h2.0877q0.69247 0 1.1731 0.11885 0.48059 0.11369 0.85266 0.36174 0.43925 0.29455 0.67696 0.7338 0.24288 0.43925 0.24288 1.111zm-1.0645 0.0258q0-0.3979-0.13953-0.69246t-0.42375-0.48059q-0.24804-0.1602-0.56844-0.22738-0.31522-0.0723-0.80098-0.0723h-1.0129v3.0747h0.863q0.62011 0 1.0077-0.10852 0.38757-0.11369 0.63045-0.35656 0.24288-0.24805 0.34106-0.52194 0.10336-0.27388 0.10336-0.61495z"/>
   <path id="path4534" d="m155.56 286.25h-1.0904l-0.75448-2.1446h-3.328l-0.75448 2.1446h-1.0387l2.8009-7.6946h1.3643zm-2.1601-3.0231-1.3488-3.7776-1.3539 3.7776z"/>
   <path id="path4536" d="m163.1 286.25h-1.3281l-2.5735-3.0592h-1.4418v3.0592h-1.0232v-7.6946h2.1549q0.69763 0 1.1627 0.093 0.46508 0.0879 0.83715 0.3204 0.41858 0.26355 0.65113 0.66662 0.23771 0.39791 0.23771 1.0129 0 0.83199-0.41858 1.3953-0.41858 0.5581-1.1524 0.84232zm-2.3926-5.5294q0-0.33073-0.11886-0.58395-0.11369-0.25838-0.38241-0.43408-0.2222-0.14986-0.52709-0.2067-0.3049-0.062-0.71831-0.062h-1.2041v2.9042h1.0335q0.48576 0 0.84749-0.0827 0.36174-0.0879 0.61495-0.3204 0.23255-0.21704 0.34107-0.49609 0.11369-0.28422 0.11369-0.7183z"/>
   <path id="path4538" d="m166.8 286.25h-3.0386v-0.78549h1.0077v-6.1236h-1.0077v-0.78548h3.0386v0.78548h-1.0077v6.1236h1.0077z"/>
  </g>
 </g>
</svg>
