<?xml version="1.0" encoding="UTF-8"?>
<svg width="1444" height="762" version="1.1" viewBox="0 0 382.05835 201.6125" xmlns="http://www.w3.org/2000/svg">
 <g transform="translate(128.79 35.711)" stroke-width=".084667">
  <path d="m97.38 138.01c-0.25777 0.0159-0.51491 0.0669-0.76274 0.15399-0.45473 0.15982-1.3517 0.70979-7.644 4.6896-2.933 1.8551-3.3386 2.2016-3.8949 3.3274-0.57474 1.1632-0.69395 2.5761-0.31471 3.7259 0.09215 0.2794 0.70801 2.089 1.3684 4.0215 0.66039 1.9325 1.2716 3.7235 1.3581 3.9796 0.14737 0.43618 1.4613 4.2441 1.9105 5.5366 0.11157 0.32104 0.2977 0.74512 0.41341 0.94258 0.29429 0.50217 0.98942 1.1009 1.5105 1.3012 0.91927 0.35341 1.7989 0.183 3.0303-0.58756 0.39143-0.24494 0.99744-0.62398 1.3467-0.84233 0.34925-0.21836 1.0159-0.63808 1.4816-0.93224 0.46566-0.29417 1.1323-0.71366 1.4816-0.93224 1.1005-0.68878 3.8276-2.411 4.4504-2.8107 0.99487-0.63861 1.6036-1.4668 2.0407-2.7761 0.11543-0.3458 0.15448-0.71669 0.15348-1.4397-2e-3 -0.87137-0.0298-1.0534-0.2682-1.7353-0.60789-1.7388-1.6594-4.7734-1.804-5.2069-0.15673-0.46964-1.1348-3.3052-2.3187-6.7216-0.69318-2.0002-0.91783-2.4642-1.4263-2.9466-0.55868-0.53004-1.3387-0.79503-2.112-0.74724zm-1.3999 7.7608c0.32273 0.0119 0.58899 0.15846 0.89349 0.4191 0.81056 0.69382 1.2103 2.0989 0.91364 3.2127-0.14218 0.53391-0.24114 0.72189-0.69608 1.324l-0.3638 0.48111 0.27027 0.0584c0.64084 0.13827 1.2372 0.57596 3.3109 2.4304l0.26148 0.23409-0.23202 0.18965c-0.12742 0.10428-0.38036 0.27397-0.56224 0.37724l-0.33073 0.18759-0.79737-0.69557c-1.3485-1.1761-1.4504-1.2591-1.9239-1.5658-0.73386-0.47531-1.0003-0.46188-1.911 0.0935-0.4191 0.2556-0.77278 0.51576-0.78548 0.57826-0.01273 0.0625 0.26734 0.95164 0.62219 1.9761 0.35485 1.0245 0.66118 1.9197 0.68058 1.9895 0.04691 0.1692-0.03473 0.26932-0.40049 0.49144-0.52376 0.31807-0.43591 0.43649-1.0883-1.465-0.22368-0.65192-0.59752-1.7376-0.83096-2.4128-1.2828-3.7104-1.7958-5.2126-1.7958-5.2596-9.8e-5 -0.0289 0.29489-0.2412 0.65578-0.47181s1.0765-0.68793 1.5901-1.016c1.2875-0.82231 1.9819-1.1763 2.5197-1.1565zm-0.33538 1.3622c-0.41671 8e-4 -0.72602 0.14538-1.7637 0.82579-0.46567 0.30533-0.93324 0.59196-1.0392 0.63666-0.10597 0.0447-0.21583 0.14212-0.24443 0.21652-0.04532 0.11808 0.70965 2.5362 0.91674 2.9362 0.04216 0.0815 0.09769 0.14832 0.12299 0.14832 0.02532 0 0.41422-0.23454 0.86454-0.5209 0.45035-0.28636 0.9522-0.60398 1.1152-0.70642 0.862-0.54179 1.2364-1.2213 1.1648-2.1136-0.07069-0.8806-0.50525-1.4237-1.1369-1.4227z" fill="#edcc62"/>
  <path d="m61.581 163.62c-2.0722-0.25246-4.4424-0.53784-5.267-0.63418-0.82462-0.0964-1.7098-0.24759-1.9671-0.33611-0.89947-0.30946-1.6681-1.0033-2.109-1.9036-0.43418-0.88672-0.43626-1.0187-0.0963-6.1066 0.17086-2.557 0.29224-4.8162 0.26975-5.0204-0.0225-0.20418-0.0145-0.32844 0.0179-0.27613 0.0323 0.0523 0.14436-1.3046 0.24896-3.0154s0.22719-3.3703 0.27242-3.6877c0.21742-1.526 1.4715-2.729 2.9496-2.8297 0.55913-0.0381 10.317 1.0581 11.226 1.2612 1.4002 0.31258 2.5965 1.5805 2.8251 2.9942 0.0914 0.56538-0.0927 3.9253-0.24351 4.4431-0.0846 0.29041-0.35199 1.2771-0.68845 2.54-0.0931 0.34925-0.20143 0.7493-0.24086 0.889-0.0922 0.32671-0.42638 1.5903-0.75724 2.8632-0.1649 0.63448-0.26005 1.2082-0.26005 1.568 0 0.98438 0.39682 2.0985 1.0396 2.9187l0.25286 0.32267-0.0595 0.88781c-0.0329 0.49064-0.13031 1.0937-0.21781 1.3481-0.43592 1.267-1.5176 2.086-2.8947 2.1918-0.35539 0.0273-1.7912-0.11225-4.3011-0.41805zm-0.254-6.5834c0-0.0129 0.15227-2.3625 0.33837-5.2214 0.18611-2.8589 0.32195-5.2144 0.30187-5.2345-0.0201-0.0201-0.26575-0.0635-0.54594-0.0966l-0.50945-0.0601-0.046 0.42847c-0.1109 1.033-0.64554 9.9757-0.59917 10.022 0.0283 0.0283 0.23081 0.0765 0.45004 0.10713 0.54353 0.0759 0.61028 0.0819 0.61028 0.0549z" fill="#e76c30"/>
  <path d="m29.365 164.26c-0.74507-0.1768-2.6691-0.63611-4.2757-1.0207s-3.3669-0.80523-3.9119-0.93477c-1.6959-0.4031-2.5274-0.9206-3.1358-1.9518-0.5028-0.85222-0.60037-1.3028-0.53927-2.4907 0.02874-0.5588 0.08755-1.2636 0.13068-1.5663 0.04314-0.30269 0.11775-0.85514 0.1658-1.2277 0.30041-2.3288 0.43702-3.3768 0.51321-3.937 0.09583-0.70463 0.44539-3.3761 0.8475-6.477 0.37827-2.917 0.40794-3.0774 0.67566-3.6535 0.42528-0.91507 1.1924-1.5052 2.2374-1.721 0.63228-0.13063 0.77169-0.10825 3.7364 0.59977 1.3504 0.3225 2.9316 0.70008 3.5137 0.83906 4.9501 1.1819 4.8253 1.1443 5.554 1.6755 0.19083 0.13912 0.48759 0.42457 0.65946 0.63432l0.3125 0.38137-0.6652 0.6652c-1.4037 1.4037-1.7783 2.9819-1.2042 5.0731 0.87788 3.1977 1.1644 4.277 1.2809 4.8257 0.07813 0.36782 0.03466 0.86621-0.30274 3.4713-0.68389 5.2804-0.66595 5.1929-1.2141 5.9205-0.59414 0.78865-1.5072 1.2332-2.5098 1.2219-0.28259-3e-3 -1.1234-0.15042-1.8685-0.32722zm-1.3476-7.3631c0.48207-0.21894 1.0256-0.77849 1.2646-1.302 0.30548-0.66892 0.44634-1.3029 0.68146-3.0669 0.11792-0.88477 0.32615-2.4443 0.46273-3.4657 0.13658-1.0213 0.23914-1.8662 0.22792-1.8774-0.01122-0.0112-0.25673-0.075-0.54558-0.14173l-0.52519-0.12133-0.04717 0.34772c-0.02594 0.19125-0.19845 1.5288-0.38335 2.9724-0.18491 1.4436-0.37794 2.8723-0.42897 3.175-0.30645 1.8179-0.91098 2.4944-2.0667 2.313-0.85904-0.13487-1.4566-0.61452-1.6987-1.3635-0.20634-0.63835-0.14066-1.6635 0.33922-5.2944 0.22044-1.668 0.38352-3.05 0.36241-3.0711-0.0613-0.0613-0.98504-0.24165-1.0225-0.19963-0.01865 0.0209-0.13675 0.83816-0.26245 1.8161-0.1257 0.9779-0.32062 2.4828-0.43315 3.3443-0.3955 3.0278-0.23304 4.1678 0.73395 5.1499 0.61962 0.6293 1.3671 0.92564 2.3606 0.93584 0.44901 5e-3 0.73627-0.0395 0.98076-0.15053z" fill="#03a5d5"/>
  <path d="m74.724 138.36c-0.44199-3e-3 -0.89572 0.0823-1.2475 0.24805-0.5307 0.25012-1.1338 0.84476-1.3865 1.3674-0.16066 0.33231-0.88176 2.9055-2.1782 7.7701-0.1179 0.44239-0.32851 1.2236-0.46767 1.7358-0.13918 0.51223-0.32943 1.2171-0.42323 1.5663-0.09377 0.34925-0.20296 0.74913-0.24236 0.88883-0.09221 0.32671-0.4262 1.5904-0.75706 2.8634-0.16175 0.62235-0.25993 1.2096-0.25993 1.5539 0 1.148 0.47234 2.3116 1.309 3.2246l0.51005 0.55707 3.853 1.9007c5.8251 2.8739 6.6107 3.2485 7.0704 3.3709 1.2719 0.3385 2.6897-0.34334 3.283-1.5792 0.23148-0.48216 2.5518-8.9719 2.5327-9.2666-6e-3 -0.0931-0.13074-0.51211-0.27698-0.93121-1.6063-4.6037-1.6681-4.877-1.3989-6.1784 0.24954-1.2063 1.064-2.5094 1.8867-3.0179l0.30954-0.19069-0.33176-0.29249c-0.38964-0.34349-10.303-5.2769-11.026-5.487-0.23197-0.0674-0.4929-0.10147-0.7581-0.10335zm4.2152 8.4119c0.64091 0 0.78318 0.0304 1.2702 0.27078 1.1947 0.58973 2.1102 1.8954 2.3709 3.3812 0.15926 0.90761 0.06434 2.507-0.2067 3.4856-0.46523 1.6797-1.2489 2.835-2.2934 3.3812-0.62451 0.32657-1.6725 0.36234-2.343 0.0796-2.3596-0.99518-3.2946-4.1069-2.2128-7.3639 0.50244-1.5126 1.2544-2.5277 2.2252-3.0045 0.39836-0.19564 0.57587-0.22996 1.1896-0.22996zm0.02376 1.2506c-0.13044 5e-3 -0.2648 0.0344-0.45579 0.0899-0.70015 0.20355-1.115 0.61001-1.557 1.5255-1.3336 2.7622-0.92912 5.595 0.92191 6.457 0.56961 0.26496 1.1408 0.26373 1.7172-5e-3 0.80636-0.37543 1.5202-1.6329 1.8495-3.2582 0.17415-0.85958 0.134-2.2985-0.08061-2.8851-0.34923-0.95462-1.1021-1.6724-1.9632-1.8712-0.17519-0.0404-0.30157-0.0586-0.43201-0.0532z" fill="#ae4182"/>
  <path d="m46.468 138.39-1.4392 0.69195c-3.1608 1.519-9.0146 4.4286-9.2005 4.5728-0.8494 0.65944-1.5217 1.6013-1.8314 2.5663-0.25731 0.80173-0.20571 1.8453 0.15503 3.1326 0.09787 0.34925 0.23682 0.84459 0.30851 1.1007 0.18213 0.65068 0.64554 2.4058 1.0842 4.1062 0.20421 0.79163 0.56685 2.1631 0.80615 3.0479 0.23931 0.88476 0.67972 2.523 0.97875 3.6406s0.60354 2.1817 0.67644 2.3642c0.30158 0.75517 0.90203 1.3538 1.6795 1.6743 0.44292 0.18263 1.4445 0.19578 1.9467 0.0253 0.28715-0.0975 10.266-4.9777 10.35-5.0617 0.0097-0.01-0.01919-0.208-0.06459-0.4408-0.06196-0.31765-0.0046-1.6382 0.23099-5.2917l0.31419-4.8684-0.82321-3.0479c-1.9331-7.1574-1.8151-6.8096-2.5471-7.4843-0.59724-0.55052-1.0471-0.72202-1.9043-0.72502zm-0.65939 6.8466c0.03821 0.0382 2.6489 9.7054 2.6489 9.8087 1e-6 0.0359-0.23268 0.16997-0.51728 0.29817l-0.51728 0.23307-2.8484-2.8055c-1.5664-1.5432-2.857-2.7985-2.868-2.7885-0.01108 0.01 0.43017 1.6916 0.98082 3.7372l1.0015 3.7192-0.47336 0.23099c-0.26016 0.12703-0.49289 0.23206-0.51728 0.23306-0.02438 1e-3 -0.42072-1.398-0.88057-3.1094-0.45986-1.7113-1.0577-3.929-1.3286-4.9279-0.27089-0.99889-0.48394-1.8234-0.47387-1.8314 0.01006-8e-3 0.24975-0.13152 0.53278-0.27337l0.5147-0.25786 2.8293 2.8308c1.5563 1.5568 2.8413 2.7964 2.8551 2.7549 0.01384-0.0415-0.39358-1.6323-0.90537-3.5352-0.51179-1.9028-0.95483-3.5606-0.98444-3.6835-0.04964-0.20611-0.01613-0.24052 0.4315-0.44545 0.26697-0.1222 0.50098-0.207 0.51986-0.1881z" fill="#db322d"/>
  <path d="m5.7642 165.01c-0.53526-0.13488-1.1113-0.47238-1.4695-0.86092-0.66089-0.71698-0.70452-0.87494-1.8547-6.7147-0.58698-2.9803-1.2935-6.5486-1.5701-7.9296-0.27658-1.381-0.50287-2.7351-0.50287-3.009 0-0.66496 0.19752-1.3882 0.56192-2.0577 0.54388-0.99915 1.3399-1.6468 2.541-2.0674 0.3656-0.12803 2.6459-0.95023 5.0674-1.8271 2.4215-0.87688 4.5593-1.6401 4.7507-1.6961 0.19636-0.0574 0.62062-0.086 0.97367-0.0656 0.77611 0.0449 1.3179 0.28986 1.8797 0.84984 0.71892 0.71658 0.66168 0.51006 1.9631 7.0827 0.52498 2.6513 0.50632 2.2581 0.20936 4.4123-0.07724 0.56032-0.21592 1.6212-0.51466 3.937-0.04806 0.37253-0.12266 0.92498-0.1658 1.2277-0.04313 0.30268-0.10194 1.0075-0.13068 1.5663-0.06062 1.1785 0.04109 1.6586 0.5198 2.4536 0.1616 0.26836 0.29382 0.50171 0.29382 0.51857 0 0.1053-1.2303 0.59095-4.3603 1.7213-1.9558 0.70625-3.9561 1.4326-4.445 1.614-2.4104 0.89444-3.0118 1.03-3.7468 0.84485zm7.1672-9.1747c0.2085-0.12218 0.51432-0.38718 0.67959-0.58887 0.72301-0.88235 0.74764-1.7158 0.14175-4.797-0.2335-1.1874-0.56617-2.8829-0.73927-3.7677-0.17309-0.88477-0.34336-1.6421-0.37837-1.6829-0.07787-0.0908-0.9289 0.20349-0.981 0.33924-0.02046 0.0533 0.26943 1.6427 0.64421 3.532 0.37479 1.8892 0.72252 3.6998 0.77274 4.0235 0.11534 0.74342 4e-3 1.2055-0.38413 1.5936-0.23336 0.23336-0.34341 0.28029-0.65739 0.28029-0.50899 0-0.75026-0.23781-0.99405-0.97974-0.10601-0.32263-0.20406-0.5999-0.21788-0.61616-0.05627-0.0662-0.88323 0.44563-0.88323 0.54665 0 0.06 0.094451 0.40814 0.20987 0.77355 0.22988 0.72767 0.60993 1.2549 1.0771 1.4943 0.40865 0.20936 1.2172 0.1381 1.71-0.1507z" fill="#2fa14c"/>
  <path d="m18.415 65.43c-0.36762-0.01045-0.55608 0.1957-0.72502 0.79168-0.13064 0.46086-0.15558 0.4889-0.74931 0.83767-1.8433 1.0827-2.4148 1.7907-1.9642 2.434 0.1939 0.27682 0.4965 0.23448 1.1157-0.15658 0.30039-0.18971 0.56341-0.32754 0.58446-0.30644 0.06197 0.06197-0.70346 1.7514-1.6185 3.5724l-0.85111 1.6934-0.39791-0.0279c-0.33423-0.02339-0.43277 0.0064-0.61288 0.18655-0.30268 0.30267-0.29058 0.72684 0.03101 1.0868l0.24598 0.27492-0.20154 0.39739c-0.84602 1.6696-2.414 5.4862-2.6215 6.381-0.1494 0.6442-0.12637 0.8379 0.13849 1.1746 0.14738 0.18736 0.23756 0.22502 0.48834 0.20412 0.27038-0.02257 0.33088-0.072 0.49868-0.40669 0.10506-0.20955 0.38711-0.93348 0.62632-1.6087 0.49022-1.3837 1.165-2.9977 1.9208-4.594l0.5116-1.08 0.83044 0.05271c3.2792 0.2087 7.0216-2.0223 8.5354-5.0886 1.0664-2.1599 0.78196-4.1282-0.74828-5.178-0.53512-0.36711-0.96824-0.48172-1.7725-0.46974-0.56391 0.0084-2.032 0.2894-2.5378 0.48576-0.11084 0.04303-0.14831 0.01479-0.14831-0.11162 0-0.28209-0.26957-0.53587-0.57826-0.54467zm-22.565 0.35708c-0.90563 0-1.7857 0.38662-2.589 1.1374-0.43628 0.40777-2.2212 2.745-4.7889 6.2709-1.2936 1.7764-1.7354 2.3364-3.1724 4.0215-3.3883 3.9732-8.3071 9.1023-13.509 14.086-1.7441 1.6712-2.6474 2.4634-3.8101 3.3414l-1.5239 1.1508-2.1167 0.23616c-7.8838 0.88-14.736 2.2898-20.659 4.2509-6.7391 2.2315-14.023 5.7129-18.838 9.0031-5.7942 3.9593-8.7239 7.7129-8.7199 11.171 0.0024 1.8576 1.3407 2.6588 4.4442 2.6608 1.9888 1e-3 3.1442-0.24205 6.3076-1.3286 8.1773-2.8087 17.36-7.4127 27.982-14.031 5.5483-3.4566 9.5279-6.3073 13.946-9.9901l1.6686-1.3911 1.972-0.11782c1.9636-0.1172 9.2382-0.16224 9.3426-0.05788 0.02873 0.02872-0.55656 1.3408-1.3002 2.9161-4.623 9.7936-6.0665 13.307-7.3448 17.874-1.4431 5.1566-1.7295 9.3209-0.91571 13.311 0.37871 1.8568 1.6394 3.5543 3.4711 4.6736 0.63847 0.39016 0.69348 0.44467 0.60926 0.60203-0.05094 0.0952-0.8562 1.4143-1.7896 2.9311-3.7801 6.1431-6.7476 11.779-7.2626 13.793-0.35386 1.3836-0.09827 2.5378 0.63304 2.8562 0.4381 0.19067 1.0666 0.1518 1.4185-0.0873 0.46355-0.31498 0.80067-0.84236 1.8686-2.9244 0.53743-1.0478 1.5585-3.01 2.2691-4.3605 1.1331-2.1533 5.5905-10.932 5.6798-11.186 0.0235-0.0669 0.25758-0.0467 0.7953 0.0687 1.2279 0.26352 2.9125 0.29197 4.191 0.0713 2.4024-0.41465 4.685-0.98054 5.3588-1.3286 0.4557-0.23537 0.46867-0.80006 0.02479-1.0909-0.44045-0.28859-0.78615-0.25467-2.0014 0.19585-3.0205 1.1198-4.9715 1.4238-6.6554 1.0377-0.45823-0.10507-0.87953-0.21622-0.93638-0.24702-0.10648-0.0577 1.4378-2.9093 5.6679-10.466 3.2922-5.8813 8.544-15.045 8.5938-14.995 0.011668 0.0117-0.17344 0.55178-0.41134 1.2004-0.68058 1.8556-1.5764 4.5443-1.9301 5.7934-0.40714 1.4378-0.54893 2.2323-0.49609 2.7823 0.12935 1.3462 1.581 2.806 2.79 2.806 0.74854 0 4.092-2.0636 6.2404-3.8514 1.613-1.3423 3.3468-3.227 4.5186-4.9118 0.47806-0.68739 1.6377-2.5815 2.2133-3.6148 0.18009-0.32327 0.35961-0.55034 0.41754-0.52814 0.22116 0.0849 3.8432-2.9093 8.3979-6.9427 1.723-1.5258 3.1761-2.7922 3.2293-2.8138 0.15002-0.06094 1.9013 0.62738 2.1208 0.83354 0.11672 0.10966 0.19585 0.28261 0.19585 0.4284 0 0.30648-0.58583 1.6805-2.2614 5.3041-1.9478 4.2124-2.5473 5.7783-3.0334 7.9261-0.29968 1.3241-0.37576 2.848-0.17673 3.5326 0.32238 1.109 1.4193 1.3588 2.9073 0.6625 0.73238-0.34272 2.1863-1.4907 5.1465-4.0638 4.8513-4.217 5.3764-4.6686 5.3764-4.6235 1e-6 0.0252-0.16531 0.30324-0.3669 0.61805-1.1918 1.861-2.4264 4.3038-2.8815 5.7009-0.61322 1.8825-0.72744 3.6849-0.30231 4.7666 0.25519 0.64935 0.874 1.3252 1.4531 1.587 0.3853 0.17418 0.57348 0.20144 1.3777 0.19844 0.82597-3e-3 1.0225-0.0348 1.7358-0.28009 1.481-0.50915 3.2047-1.5234 5.3764-3.1636 2.2894-1.7291 3.5504-2.8425 8.8248-7.7918 1.8736-1.7581 3.4266-3.1967 3.451-3.1967 0.02438 0-0.6736 1.0761-1.5513 2.3916-2.6458 3.9654-5.2677 8.169-6.2151 9.9642-0.31853 0.60358-0.33513 0.67112-0.28887 1.172 0.08758 0.94832 0.42695 1.4687 1.0366 1.5906 0.23272 0.0465 0.45653-0.11836 2.7895-2.0552l2.5368-2.1058 0.33486-0.71623c0.32048-0.68558 0.40591-0.7857 1.9895-2.3244 3.8754-3.7654 11.624-11.102 12.524-11.859l0.28629-0.23978-0.14263 0.2744c-0.16126 0.31184-3.4338 6.1731-4.0959 7.336-0.54589 0.95878-0.72968 1.6444-0.67128 2.5001 0.07907 1.1578 0.59177 1.8935 1.6754 2.404 0.72921 0.34353 1.6002 0.50553 2.2758 0.42323 2.0441-0.24891 6.4403-2.5368 10.63-5.533l0.4222-0.3023-0.18035 0.29662c-0.09897 0.16298-0.43506 0.71508-0.74724 1.2273-1.4256 2.3392-2.5699 5.0828-3.267 7.8321-0.24202 0.95463-0.26431 1.1453-0.22531 1.9472 0.05228 1.0752 0.25879 1.6904 0.71727 2.1379 0.59996 0.58557 1.4668 0.71484 2.6918 0.40152 3.1-0.79285 7.5334-4.8086 13.32-12.064 0.66849-0.8382 1.3284-1.6576 1.4661-1.8206l0.25012-0.2961-0.28836 0.55035c-1.2628 2.4103-1.9756 4.7342-2.0645 6.7309-0.12423 2.7895 0.74273 4.5209 2.2676 4.5279 0.5215 2e-3 0.82858-0.11446 2.5042-0.95498 3.4852-1.7482 6.2095-3.6691 9.5498-6.7329 1.8655-1.7112 11.048-10.264 12.669-11.8 0.72776-0.68966 1.3454-1.2537 1.3725-1.2537s-0.30522 0.48581-0.73845 1.0795c-2.5922 3.5524-5.2598 7.6198-6.9546 10.605-2.5782 4.5406-3.0536 6.6565-1.7524 7.799 1.0992 0.9651 2.86 0.64161 5.194-0.95394 1.1975-0.81865 1.8376-1.4165 5.9283-5.5346 3.8173-3.8429 3.9172-3.9352 4.238-3.9352 0.18067 0 0.46956-0.0739 0.64233-0.16382 0.17277-0.0898 1.2878-1.0705 2.4779-2.1797 3.5756-3.3327 7.4649-6.8899 8.9576-8.1928l0.19947-0.17415-0.12299 0.29611c-0.91192 2.1993-4.2587 8.9082-7.5634 15.16-0.99881 1.8896-1.0923 2.2047-0.76636 2.5921 0.28216 0.33533 0.80373 0.47873 1.5932 0.43874 1.2146-0.0616 2.103-0.73337 3.5595-2.6908 2.8973-3.8937 6.8434-8.185 10.005-10.879 1.2557-1.0703 1.761-1.3412 1.8872-1.0123 0.06 0.15644-0.15175 1.4617-0.43357 2.6732l-0.19068 0.82114-0.96842 1.0418c-4.3616 4.6923-8.2546 9.8936-11.774 15.731-4.8219 7.9983-8.107 16.313-9.3865 23.759-0.16347 0.95145 0.0174 1.4666 0.62581 1.7844 0.38654 0.20186 1.4123 0.18374 1.974-0.0351 1.0784-0.42019 3.8858-2.9328 5.9619-5.3356 6.3652-7.3668 12.602-20.179 15.446-31.729 0.39992-1.6244 0.98129-4.4532 1.1539-5.6146l0.1049-0.70435 1.3922-1.3539c1.721-1.6736 3.7015-3.4168 5.8446-5.1454 2.3514-1.8965 2.5281-2.0294 4.1196-3.0902 2.9158-1.9436 5.4418-3.2139 7.6202-3.8323 0.78968-0.22422 0.94898-0.23975 2.3704-0.23875 1.8047 0.0019 2.7996 0.16802 4.6147 0.77205 2.0828 0.6931 3.8472 1.6267 7.6621 4.053 4.3251 2.7508 5.5622 3.3773 8.2977 4.2044 2.5136 0.76002 5.3494 1.3695 7.6621 1.6469 1.3929 0.16708 4.5408 0.19103 5.9268 0.045 2.856-0.30097 5.9786-1.0147 10.033-2.2939 1.5405-0.48604 1.7646-0.59703 1.9084-0.94413 0.10327-0.2493 0.0968-0.2824-0.0822-0.42736-0.10673-0.08642-0.31078-0.1571-0.45372-0.1571s-1.0494 0.22857-2.0143 0.50798c-2.8556 0.82689-5.1596 1.3392-7.5711 1.6836-6.131 0.8757-12.167 0.03-17.753-2.4867-1.2442-0.56054-2.5711-1.3165-5.3609-3.0546-4.4724-2.7865-6.3957-3.7535-8.8904-4.4695-1.6578-0.4758-2.5256-0.60158-4.1481-0.60358-1.3054-0.0013-1.5148 0.01998-2.251 0.22582-2.6934 0.75314-6.1334 2.6116-10.136 5.4772-2.6556 1.901-4.2562 3.2141-6.9381 5.6922l-1.4604 1.3498v-0.83768c1e-5 -0.97134-0.0972-1.1686-0.69349-1.4072-0.43311-0.17345-1.3402-0.25928-1.88-0.17828-0.48215 0.0723-1.3901 0.66323-2.9817 1.941-1.7959 1.4417-3.1631 2.6815-5.5573 5.0395-0.77998 0.76819-1.418 1.3591-1.418 1.3131s0.32748-0.74855 0.72812-1.5612c1.1742-2.3815 3.6411-7.5417 4.3284-9.0547 0.87909-1.9352 1.2087-2.7728 1.2087-3.0691 0-0.49823-0.82051-1.079-1.5239-1.079-0.30902 6.9e-5 -0.57303 0.16059-1.6314 0.99012-2.8197 2.21-5.9892 5.0023-10.269 9.0475-3.3676 3.1829-8.5497 7.3417-12.145 9.7472-1.1655 0.77978-3.0825 1.9735-3.1693 1.9735-0.17123 0 0.0335-0.5326 0.55449-1.4438 3.3078-5.7851 7.2118-11.548 10.666-15.743 0.47924-0.58209 0.95967-1.1878 1.0671-1.3457 0.25313-0.37147 0.25381-0.77116 3e-3 -1.0072-0.28143-0.26439-1.1744-0.46948-1.8376-0.42168-0.8104 0.05842-1.2837 0.33496-2.1342 1.2464l-0.71469 0.76584h-0.89452l-1.1984 1.1224c-4.8649 4.5575-10.074 8.8693-14.895 12.328-2.7265 1.9561-6.9969 4.6342-7.706 4.8328-0.35088 0.0982-0.42138 0.0942-0.6196-0.0357-0.2148-0.14074-0.2219-0.17022-0.1819-0.75138 0.07144-1.0367 1.2322-4.2781 2.4303-6.7877 2.8543-5.9783 8.469-13.744 17.7-24.482 1.0299-1.198 1.5174-1.6889 2.266-2.28 4.2391-3.3469 4.4431-3.5223 4.748-4.0845 0.22653-0.41769 0.29139-0.63442 0.28939-0.97358-2e-3 -0.54252-0.21954-1.0934-0.53589-1.3596-0.27767-0.23399-0.94754-0.35633-1.2718-0.23306-0.30084 0.11438-1.6704 1.5676-5.1997 5.517-1.7329 1.9391-2.3569 2.6028-6.565 6.9846-5.0497 5.2583-7.2027 7.789-10.338 12.152l-1.6211 2.2557-0.98237-0.41651c-1.2709-0.53894-2.9411-1.1077-3.6918-1.2573-0.942-0.18773-2.5665-0.14547-3.4096 0.0884-1.4399 0.39935-3.3099 1.5694-5.1418 3.2179-0.87016 0.783-4.186 3.2791-5.9051 4.4452-3.5422 2.4028-6.5117 3.8826-8.5969 4.285-0.29247 0.0563-0.55621 0.0784-0.58601 0.0486-0.13677-0.13676 1.0829-3.2314 2.2515-5.7139 0.9626-2.0448 2.3939-4.8452 3.0577-5.9816 0.65714-1.1249 0.93114-1.7396 0.93121-2.0913 1.69e-4 -0.7878-0.40584-1.0423-1.5596-0.9772-0.90199 0.05087-1.2111 0.1703-2.2929 0.8847-3.0716 2.0285-7.6784 6.0116-13.935 12.048-1.0377 1.0012-1.8537 1.7633-1.8133 1.6934 0.12697-0.21974 2.3731-3.417 4.1341-5.8844 1.4501-2.0318 4.4799-6.1154 5.7779-7.7876 0.36423-0.46928 0.38933-0.53358 0.34933-0.88884-0.0369-0.32765-0.10563-0.44018-0.47491-0.7798-0.57792-0.5315-1.418-0.93879-2.0283-0.98289l-0.47749-0.03462-0.41393 0.4532c-0.22766 0.24924-1.2225 1.6426-2.2107 3.0964l-1.7968 2.6432-1.3126 1.1322c-8.0216 6.9184-14.226 11.484-18.395 13.537-2.2442 1.105-2.6202 0.90879-2.1136-1.1002 0.36867-1.462 1.0983-3.0926 1.9906-4.4498 0.28219-0.42921 0.42468-0.56904 0.62477-0.61134 0.55434-0.11727 2.3484-0.84558 3.5192-1.4288 1.4471-0.72093 2.7421-1.503 4.1708-2.5187 4.3156-3.0681 6.9281-5.9829 7.4207-8.2801 0.1389-0.64764-0.02245-0.88315-0.92346-1.3477-1.2354-0.63702-2.7777-0.97004-4.2711-0.92294-1.1912 0.03762-1.2222 0.04977-2.4598 0.98288-2.6172 1.9733-4.9672 4.2281-6.8745 6.597-0.5358 0.66547-1.8445 1.7694-4.1326 3.4861-2.7152 2.0372-6.7363 4.7726-7.1763 4.8814-0.29693 0.0734-0.48576-0.0771-0.48576-0.38654 0-0.63704 3.0427-8.8794 4.083-11.06 0.35196-0.73787 0.35717-0.76237 0.35967-1.68 3e-3 -1.1234-0.14579-1.6283-0.64751-2.1983-0.61508-0.69877-2.4514-1.4289-5.5676-2.2138-1.5931-0.40128-1.9193-0.43715-2.28-0.25063-0.44028 0.22767-0.97812 1.2194-1.0713 1.9751-0.08076 0.65536 0.11433 0.9265 0.96066 1.3343l0.70538 0.34003-1.5942 1.5658c-0.87696 0.86118-2.2061 2.1069-2.9533 2.7688-1.4602 1.2936-4.3835 3.7494-4.4199 3.713-0.012197-0.0122 0.16544-0.42014 0.39481-0.90641 1.3064-2.7696 2.0382-5.2756 2.0392-6.9846 5.29e-4 -0.7741-0.2083-1.9703-0.43667-2.5011-0.22037-0.51162-0.88728-1.1311-1.3703-1.2729-0.19356-0.056859-0.63777-0.10316-0.98702-0.10232-0.80312 0.0013-1.1192 0.14074-2.2862 1.0072-1.9749 1.4663-3.8096 3.0927-6.5825 5.8343-1.7434 1.7238-2.2226 2.1553-2.2226 2.002 0-0.1075 0.1196-0.54327 0.26562-0.9679 0.47116-1.3702 0.41351-2.7148-0.15761-3.6907-1.1024-1.8838-4.0149-3.1912-8.6594-3.8871-0.62865-0.0942-1.4475-0.19691-1.82-0.22841-0.37253-0.03145-0.72597-0.08301-0.78496-0.1142-0.21597-0.11408 6.0681-12.474 10.463-20.58 2.0125-3.7118 2.415-4.6182 2.5285-5.6927 0.095713-0.90592-0.33943-1.554-1.388-2.0671-0.24589-0.1203-0.447-0.27333-0.447-0.34003 0-0.49754-0.59667-0.87488-1.3834-0.87488zm25.838 1.2764c0.55843-0.0043 1.0743 0.08265 1.4175 0.2527 1.0918 0.54104 1.0388 1.9026-0.14211 3.6504-1.2089 1.7892-3.5721 3.427-5.5371 3.8375-0.32597 0.06809-0.70728 0.12027-0.84698 0.11627-0.26933-0.0083-0.97708-0.13422-1.0253-0.18242-0.01572-0.01574 0.31679-0.75045 0.73897-1.6325 0.96336-2.0127 1.7667-3.8107 2.0221-4.5248 0.10826-0.30269 0.23221-0.59617 0.27544-0.65267 0.12114-0.1582 1.3527-0.60721 2.0748-0.75654 0.33749-0.0698 0.68762-0.10543 1.0227-0.108zm62.3 2.2955c-0.0943 0.01021-0.19164 0.04574-0.28422 0.11059-0.2301 0.16117-1.4379 1.7947-2.065 2.7926l-0.48007 0.76378-0.5395 0.14056c-0.29683 0.07739-0.71925 0.16544-0.93844 0.19534-0.43691 0.05967-0.69978 0.23801-0.78548 0.53279-0.04217 0.14497 0.0085 0.25507 0.20929 0.45578 0.24389 0.24385 0.29706 0.26069 0.67903 0.21549l0.41444-0.04909-0.28267 0.60926c-0.15557 0.33514-0.47347 1.0092-0.70642 1.4981-0.95061 1.9952-1.3939 4.0093-1.109 5.0379 0.13374 0.48288 0.38587 0.79941 0.78548 0.98547 1.0994 0.51189 2.6901-0.71807 4.2204-3.2639 0.44169-0.73475 0.5066-1.0887 0.22738-1.2382-0.26687-0.14283-0.50444 0.06153-1.0563 0.91002-1.0623 1.6334-1.7432 2.3099-2.3244 2.3099-0.51009 0-0.62649-0.20362-0.56999-0.99374 0.06554-0.91601 0.52653-2.3021 1.3684-4.114 0.48144-1.0362 1.1443-2.1671 1.3462-2.2965 0.25502-0.16349 2.3689-0.77463 2.9352-0.84853 0.62333-0.08137 0.84646-0.23133 0.84646-0.56896 0-0.61346-0.56213-0.72748-1.9637-0.39843-0.41636 0.09777-0.77075 0.16408-0.78755 0.14728-0.01677-0.01677 0.1568-0.29672 0.38551-0.62218 0.60007-0.85395 1.0113-1.5945 1.0113-1.8211 0-0.32305-0.25351-0.52104-0.5364-0.49041zm-24.311 0.30592c-0.46897-0.0039-1.1193 0.49943-1.5136 1.2619-0.19281 0.37282-0.17984 0.83147 0.02946 1.0408 0.33036 0.33037 0.8504 0.1706 1.3906-0.42736 0.59005-0.65311 0.78302-1.3263 0.48576-1.6934-0.09976-0.1232-0.2359-0.1806-0.39222-0.1819zm-66.535 2.7559c0.014605 0.01461-0.49206 1.109-1.126 2.4324-2.1827 4.5563-6.1012 12.828-7.8274 16.524l-1.7296 3.7031-2.8789 0.0021c-1.5833 0.0013-3.6214 0.03828-4.5294 0.08268v5.29e-4c-0.90805 0.04443-2.0305 0.10648-2.4944 0.13798l-0.84336 0.05684 0.54518-0.49868c0.30004-0.27446 1.0029-0.91818 1.5622-1.4304 6.3194-5.7882 13.089-13.1 18.3-19.764 0.54743-0.70012 1.007-1.2605 1.0216-1.2459zm101.17 1.573c-0.67249 0.02689-1.5095 0.51793-2.4319 1.4397-0.8545 0.8539-1.3656 1.5662-1.9198 2.6758-1.0664 2.1349-1.1545 4.1355-0.20464 4.6514 0.35472 0.19266 1.0073 0.1571 1.5224-0.08268 0.95776-0.44587 2.1264-1.8791 3.1104-3.8158 1.1588-2.2807 1.3879-4.2997 0.53795-4.7392-0.18469-0.0955-0.39027-0.13816-0.61443-0.12919zm-48.279 0.0057c-0.54624 0-1.1573 0.26552-1.8733 0.8139-2.47 1.8919-4.2156 6.1772-3.1078 7.6295 0.12139 0.15914 0.30269 0.32247 0.40256 0.36277 0.09988 0.0403 0.37393 0.07555 0.60926 0.07855 1.2086 0.01516 2.626-1.4339 3.9434-4.0313 1.3996-2.7594 1.4109-4.8535 0.02584-4.8535zm-11.751 0.37724c-0.17686-0.01048-0.46524 0.15864-1.1979 0.68265-0.89713 0.64167-1.5876 1.2372-2.6882 2.3187-0.50059 0.49194-0.91002 0.85627-0.91002 0.80977 0-0.15998 0.65118-1.1983 1.2139-1.9358 0.30998-0.40625 0.58699-0.83328 0.61598-0.94878 0.0619-0.24663-0.1601-0.54157-0.40773-0.54157-0.92096 0-2.4557 2.4-3.7967 5.9381-0.7319 1.9311-0.80819 2.3939-0.42581 2.5838 0.16111 0.0801 0.26154 0.0793 0.46354-0.0031 0.20716-0.08453 0.36267-0.30294 0.7953-1.1157 0.69007-1.2964 1.1111-1.9673 1.6965-2.7042 0.55198-0.69476 1.5667-1.7665 1.8955-2.0019l0.22996-0.16485-0.12402 0.29766c-0.34396 0.8232 0.07361 1.3509 1.0609 1.3405 0.8301-0.0087 1.852-0.53678 2.7662-1.4294 0.46544-0.45442 0.54715-0.68585 0.32143-0.91157-0.15587-0.15587-0.38473-0.08697-0.91416 0.27595-0.91653 0.62825-1.7532 0.88516-1.9415 0.59583-0.1843-0.28327 0.02312-0.61985 0.91519-1.4862 0.48662-0.4726 0.8847-0.90293 0.8847-0.95653 0-0.17448-0.24455-0.57508-0.38344-0.62839-0.02168-0.0083-0.0445-0.01349-0.06976-0.01497zm34.724 0.05891c-0.09237-0.0068-0.19208-0.0053-0.29972 0.0052-1.4802 0.14469-3.7938 2.4626-4.546 4.5542-0.30626 0.85168-0.38113 1.9142-0.17777 2.5265 0.15882 0.47818 0.5718 0.89659 1.0744 1.0883 0.45659 0.17418 1.4536 0.08431 2.1461-0.19379 1.6639-0.66812 4.0839-2.9016 4.007-3.698-0.02155-0.22313-0.06693-0.27841-0.2465-0.29921-0.18389-0.02135-0.41332 0.16795-1.3968 1.1508-1.2798 1.2791-1.9512 1.7174-2.8102 1.8355-0.8658 0.11908-1.542-0.30275-1.542-0.96273v-0.31781l0.69866-0.26665c0.89471-0.34143 1.6563-0.83849 2.3528-1.5363 1.8015-1.8049 2.1256-3.7844 0.74001-3.8861zm-11.797 0.11627c-0.37462 0.01968-0.85461 0.47912-1.3364 1.3157-0.22308 0.38738-3.1678 6.6124-3.2427 6.8549-0.02195 0.07106-0.44423 0.31709-0.93793 0.54674-2.9251 1.3607-5.2678 3.8361-5.502 5.8136-0.09109 0.76918 0.15478 1.307 0.77566 1.6971 0.3697 0.23223 1.293 0.18152 1.8542-0.1018 1.2238-0.61791 2.5267-2.4686 3.7843-5.3754 0.80908-1.8701 0.82672-1.8965 1.6051-2.4035 2.5339-1.6504 4.6052-4.0967 4.0907-4.8312-0.26044-0.37182-0.4984-0.20588-1.1581 0.80718-0.21486 0.32999-0.62954 0.86098-0.92139 1.1798-0.54085 0.59076-1.746 1.6052-1.8195 1.5317-0.04615-0.04616 0.67598-1.7034 1.1844-2.7187 0.4689-0.93632 1.1317-2.1115 1.5043-2.667 0.17178-0.25612 0.39612-0.63083 0.49868-0.83251 0.17135-0.33697 0.17576-0.38254 0.05633-0.56482-0.11699-0.17854-0.26535-0.26061-0.43563-0.25166zm36.702 0.89297c0.1974 0.0066 0.30471 0.17259 0.32866 0.49868 0.03532 0.48063-0.23896 1.0255-0.99736 1.9802-0.3273 0.41203-0.57032 0.79286-0.54002 0.84646 0.03029 0.05363 0.112 0.16406 0.1819 0.24546 0.11351 0.13224 0.10988 0.186-0.0341 0.50591-0.24157 0.53676-0.83331 1.3005-1.2309 1.5885-0.44441 0.32189-0.92794 0.35073-1.1265 0.06718-0.29294-0.41823-0.12758-1.2565 0.5054-2.5637 0.50718-1.0473 1.3108-2.1125 2.0448-2.7104 0.38348-0.31237 0.67076-0.46501 0.86816-0.45837zm-48.391 0.01963c0.03289-0.0016 0.06292 0.0013 0.09043 0.0083 0.61247 0.15372 0.2934 1.1629-0.7922 2.5063-0.28222 0.34925-0.51333 0.67057-0.51418 0.71417-7.86e-4 0.04357 0.07714 0.16291 0.17363 0.26562l0.1757 0.18707-0.22893 0.45372c-0.28272 0.56058-0.77553 1.1904-1.188 1.5183-0.52392 0.41636-1.0901 0.31228-1.2552-0.23048-0.15453-0.50813 0.47933-2.2399 1.2175-3.3269 0.75914-1.1179 1.828-2.0721 2.3213-2.096zm22.826 0.34468c0.08754-8e-3 0.16079 0.0096 0.21652 0.05581 0.1711 0.14199 0.1563 0.27771-0.08268 0.74931-0.44299 0.87421-1.4834 1.8564-2.3993 2.2655-0.2458 0.10979-0.46479 0.19999-0.48679 0.19999-0.08763 0-0.02937-0.19624 0.18345-0.61702 0.65831-1.3016 1.956-2.5978 2.5688-2.6536zm-16.658 8.5416c0.02079 2.64e-4 0.03643 0.0054 0.04651 0.0155 0.09145 0.09145-1.5816 3.3005-2.0748 3.9796-0.26874 0.37002-0.66712 0.8007-0.88574 0.95705-0.75183 0.53772-1.3388 0.4241-1.3379-0.2589 0.0011-0.83293 0.46703-1.6415 1.5942-2.7662 0.88721-0.88529 2.3459-1.9325 2.6577-1.927zm69.831 1.9818c-0.68009-0.0048-0.93771 0.03605-1.6676 0.26613-0.47477 0.14967-1.0391 0.34757-1.2542 0.43977-0.36245 0.15544-0.38902 0.18757-0.36432 0.44338l0.0263 0.27595 0.83303 0.05943c1.0224 0.07288 1.2985 0.1603 1.8273 0.57826 0.60553 0.47865 1.0227 1.3404 1.0227 2.112 0 1.0477-0.51462 1.7804-2.142 3.0499-0.75374 0.58837-0.92033 0.80087-0.75757 0.96842 0.14212 0.14629 1.1806-0.02768 1.9125-0.3204 1.1389-0.45541 1.8838-0.93457 2.6386-1.6981 0.72304-0.73132 1.1166-1.3695 1.3565-2.2004 0.19979-0.69207 0.14362-1.9014-0.11059-2.3911-0.53463-1.0298-1.6711-1.5717-3.3207-1.5834zm-136.19 10.171 0.41393 0.05529c0.22773 0.03021 0.91555 0.18133 1.5281 0.3359 4.1472 1.0465 6.2358 2.9658 6.2358 5.7304 0 0.87724-0.28927 1.8427-1.0118 3.3786-0.59243 1.2592-0.70526 1.6024-0.58963 1.7896 0.041002 0.0663-0.35017 0.93158-1.0258 2.2702-1.8167 3.5993-3.3097 6.2718-8.2109 14.694-1.0569 1.8161-2.1974 3.7975-2.5342 4.4028-0.33678 0.60537-1.132 1.9673-1.7673 3.0267-0.6353 1.0594-1.1868 1.9265-1.2258 1.9265-0.2015 0-0.9383-0.92359-1.2382-1.5518-0.36164-0.75765-0.51347-1.3518-0.73845-2.8934-0.18285-1.2528-0.20599-4.5228-0.04238-5.9691 0.4367-3.8603 1.6082-8.1521 3.3977-12.447 0.84478-2.0276 3.7402-8.3197 6.1883-13.448zm-20.727 0.47542c0.05865-0.0043 0.09252-0.0041 0.09767 0.0011 0.08655 0.08654-9.4187 6.7617-13.991 9.8258-6.8331 4.5787-10.877 6.9707-16.806 9.9389-5.3999 2.7034-8.8958 4.0998-11.684 4.6679-0.52194 0.10639-1.1576 0.16895-1.7074 0.16795-1.3609-3e-3 -1.6592-0.2305-1.5715-1.1973 0.15913-1.7549 3.2255-5.6216 6.598-8.3199 7.6857-6.1493 22.739-12.329 35.373-14.521 1.6463-0.28566 3.2807-0.53341 3.6912-0.56327zm78.514 3.2442c0.06037-8e-3 0.09095 3e-3 0.09095 0.0346 0 0.0521-0.15896 0.38502-0.35347 0.74-1.735 3.1664-4.4396 5.7813-8.3194 8.0434-0.64886 0.37832-1.2119 0.68781-1.2516 0.68781s0.21104-0.37438 0.55759-0.83199c3.0796-4.0664 6.9804-7.787 9.0072-8.5912 0.11836-0.0469 0.20835-0.0746 0.26872-0.0827zm-37.718 0.61909c0.26553 3e-3 0.35272 0.0505 0.53899 0.20722 0.25788 0.21699 0.27027 0.25604 0.27027 0.83406-2.646e-4 1.7724-0.85948 4.5486-2.1332 6.8936-2.1292 3.9201-6.4286 8.9029-8.9643 10.389-0.7956 0.46628-1.009 0.40165-1.1322-0.34261-0.14062-0.84959 0.85695-4.6852 2.5466-9.7927l0.88883-2.6872 1.3281-1.1653c4.0217-3.5283 5.0969-4.2639 6.3216-4.3258 0.13853-7e-3 0.24687-0.0112 0.33538-0.0103zm78.061 3.8716c0.16383-2e-3 0.34714 1e-3 0.55655 4e-3 1.2816 0.0169 3.7453 0.18297 3.8256 0.25787 0.12925 0.12056-9.0207 9.5974-12.805 13.262-1.4543 1.4085-2.9048 2.7052-3.4375 3.0742-0.14689 0.10178-0.29445 0.185-0.32815 0.185-0.1029 0 0.04063-0.8239 0.27027-1.5508 0.62401-1.9754 2.0074-4.6188 3.8189-7.2967 1.4739-2.1788 2.846-3.814 5.0503-6.0188 1.6983-1.6986 1.9021-1.9066 3.0489-1.9172zm53.321 6.458c0.0721-4e-3 -0.98321 3.1276-1.7105 5.0762-3.5491 9.5092-9.4996 21.469-12.743 25.612-0.29165 0.37253-0.6296 0.76974-0.75137 0.88263l-0.22169 0.20516v-0.21653c0-0.31652 0.84052-3.5691 1.4283-5.5278 2.5395-8.4624 6.3508-16.093 11.356-22.736 1.2522-1.6618 2.5579-3.2904 2.6422-3.2954z" fill="#702b2e"/>
  <path d="m206.2-35.67-4.5067 4.5062c-2.4787 2.4783-4.9682 4.9415-5.5325 5.4736-0.90161 0.85028-5.0287 4.6873-6.1903 5.7552-1.703 1.5656-5.459 4.8442-7.5778 6.6151-0.86149 0.72001-1.5854 1.3292-1.6087 1.3534-0.12287 0.12781-2.1461 1.772-3.8949 3.1652-1.0943 0.87182-2.0468 1.6307-2.1167 1.6867-2.0728 1.6636-7.3119 5.5144-10.329 7.5918-0.76835 0.52902-1.7399 1.1981-2.159 1.4867-0.71402 0.49172-2.0314 1.3481-4.5294 2.9435-2.5942 1.6568-7.6174 4.6116-10.033 5.902-3.8415 2.052-6.2436 3.233-10.688 5.2534-0.57674 0.26217-0.56246 0.27678-0.53176-0.54725l0.0186-0.49868-0.26148 0.18604c-0.14379 0.1024-0.65281 0.36923-1.1307 0.59273-2.4337 1.1383-9.9776 3.7002-20.725 7.0383-4.5254 1.4056-4.2013 1.3242-6.3479 1.5973-3.8661 0.49182-6.0445 0.62579-10.16 0.62632-3.9738 3.71e-4 -5.8623-0.11013-9.2713-0.54312-5.9071-0.75028-11.639-2.2405-17.229-4.4798-1.6372-0.65582-1.8838-0.7814-2.113-1.0754-0.12072-0.15484-0.19899-0.19972-0.22789-0.13022-0.02424 0.05821-0.10503 0.10594-0.17983 0.10594-0.07478 0-1.7388-0.79692-3.6974-1.771-3.1314-1.5572-5.691-2.8009-5.7645-2.8009-0.01342 0-0.3995-0.17573-0.85783-0.39016-2.1127-0.98842-7.0646-3.0117-9.3958-3.839l-0.77308-0.2744-0.038757-0.40618c-0.12474-1.2982-1.5834-2.7167-4.0029-3.8933-4.1311-2.0089-8.2485-2.0374-9.4227-0.065629-0.07626 0.12806-0.19787 0.23254-0.27027 0.23254-0.07238 0-0.9691-0.18698-1.9926-0.41548-6.6843-1.4922-13.205-2.4092-20.488-2.8815-1.8749-0.1216-6.3012-0.26593-8.738-0.28474l-2.1337-0.016536 2.0154-4.6989c1.1086-2.5844 1.9821-4.7119 1.941-4.7279-0.1423-0.055303-1.7213 0.25011-1.8138 0.35088-0.080701 0.087844-0.32171 0.60602-1.3668 2.9378-0.11479 0.25612-0.33149 0.73237-0.48163 1.0583-0.15014 0.32597-0.74315 1.6261-1.3177 2.8897l-1.0449 2.2975-1.4883 0.054777c-4.1838 0.1542-9.8039 0.63058-14.146 1.1989-0.53552 0.070082-1.2455 0.16234-1.5777 0.20516-0.60954 0.078573-1.9317 0.27411-2.8675 0.42375-0.2794 0.044675-1.0983 0.17589-1.82 0.29146-1.8553 0.29706-1.7944 0.29467-1.8319 0.061495-0.05528-0.34338-0.19016-0.50643-0.50488-0.6103-0.68082-0.22469-1.9368 0.072641-3.33 0.78807-0.68827 0.35343-1.3882 0.8122-1.5301 1.003-0.05603 0.075343-0.49139 0.18677-1.82 0.46612-1.2666 0.26631-1.4262 0.27331-2.1167 0.088883-1.1277-0.30123-3.3528-0.13373-5.426 0.40876-0.98426 0.25755-3.4373 1.0762-4.0525 1.3524-0.23526 0.10563-0.84686 0.37643-1.3591 0.60151-0.51224 0.22508-1.5295 0.70463-2.2603 1.0656-1.0985 0.54249-1.6926 0.76723-3.4287 1.2971-2.8058 0.8563-5.5767 1.7501-8.4501 2.7259-1.3039 0.4428-2.4945 0.8414-2.6458 0.88573-0.15135 0.04433-0.27543 0.1155-0.27543 0.15813 0 0.09365 0.34109 1.0149 0.37569 1.0149 0.01341 0 1.8552-0.60937 4.0933-1.3544 2.2381-0.74507 4.1176-1.355 4.1765-1.355s-0.42382 0.3609-1.0728 0.8015c-3.0534 2.073-5.9524 4.7357-6.4978 5.9686-0.0929 0.21-0.17226 0.56876-0.17725 0.79737l-0.0078 0.416-2.836 0.96583c-1.56 0.53134-3.0269 1.0277-3.2597 1.1028-0.23283 0.07512-0.45298 0.16187-0.48938 0.19275-0.0486 0.04124 0.20255 0.88602 0.32091 1.0795 7e-3 0.01152 0.90518-0.28764 1.9957-0.66456 3.8338-1.325 6.2893-2.1111 7.1257-2.2815 0.95496-0.19461 1.8476-0.47934 3.3238-1.0599 0.5588-0.21975 1.1873-0.44721 1.3968-0.5054s0.81944-0.23926 1.355-0.40256c0.53552-0.1633 1.278-0.3825 1.6505-0.48679 0.842-0.23574 1.2458-0.3504 2.159-0.61392 1.7123-0.49406 3.9973-1.0867 4.037-1.047 0.12262 0.12262-3.6774 3.5165-6.0823 5.4322-0.61625 0.4909-3.614 2.7139-3.8256 2.837-0.14709 0.08555-0.61029 0.25629-1.0294 0.37982-1.9987 0.58913-2.5596 0.76114-5.2069 1.5937-3.1 0.97494-7.1896 2.3287-9.9059 3.2789-0.95461 0.33394-2.0312 0.70612-2.3921 0.82734-0.72492 0.24349-0.69742 0.18365-0.42375 0.93121 0.12083 0.33008 0.15508 0.36022 0.35295 0.31213 0.21513-0.0523 1.506-0.49852 2.8438-0.98289 0.8316-0.3011 9.4781-3.1505 11.033-3.636 0.62005-0.19356 1.1483-0.33069 1.1741-0.30489 0.0448 0.04485-1.2539 0.91524-3.529 2.3652-0.58208 0.37098-1.2487 0.79727-1.4816 0.94723-0.23284 0.14996-1.5857 0.98801-3.006 1.8619-5.2614 3.2373-6.148 3.81-7.0063 4.5279-0.2912 0.24356-0.55264 0.53473-0.58084 0.64699-0.0282 0.11225-0.05921 0.20412-0.06821 0.20412-0.0199 0-2.9326 1.0087-4.4307 1.5343-0.77974 0.27356-1.0371 0.39975-1.0371 0.5085 0 0.22983 0.32308 0.92087 0.43047 0.92087 0.0536 0 0.73076-0.22604 1.5053-0.50229 4.2282-1.508 9.4748-3.2746 13.093-4.4085 0.4191-0.13136 1.4284-0.44914 2.2433-0.70642 2.9158-0.92055 7.5404-2.2826 10.541-3.1047 0.51223-0.14032 1.0643-0.29295 1.2273-0.339 1.6673-0.47113 6.7605-1.7734 9.2289-2.3595 1.9498-0.46304 4.373-1.0043 7.2388-1.6175 2.4646-0.52735 7.0557-1.3743 7.1463-1.3183 0.03823 0.02363 0.21738-0.0093 0.39843-0.07338 0.18105-0.06409 0.57685-0.158 0.87953-0.20826 8.4416-1.4018 15.094-2.1358 23.241-2.5652 2.5512-0.13448 11.203-0.13225 13.716 0.0036 5.6148 0.30366 9.3181 0.68583 14.548 1.5012 0.86358 0.13459 0.91411 0.15308 0.86661 0.32143-0.05704 0.20228-0.34005 1.3408-0.47542 1.912l-0.08992 0.37879 0.53382 0.48524c0.29361 0.26695 0.56905 0.47563 0.61185 0.46354 0.04281-0.01212 0.18059-0.3819 0.30644-0.82166 0.55295-1.932 0.68018-2.281 0.83044-2.281 0.08043 0 0.73518 0.11599 1.4552 0.25838 5.4096 1.0698 11.072 2.6095 15.872 4.3155 1.8266 0.64922 1.8371 0.65313 3.5445 1.3214l1.2583 0.49248 0.29714 0.46767c1.645 2.5904 6.2195 5.9016 9.7167 7.0326 0.98937 0.31999 2.1683 0.39467 2.6246 0.1664 0.21477-0.10742 0.88809-0.97098 0.98599-1.2645 0.02514-0.07542 1.1799 0.38043 2.6546 1.048 1.9193 0.86885 6.7596 2.6881 9.9679 3.7465 1.3842 0.45669 2.5177 0.85463 2.5187 0.88418 0.0011 0.02955-0.21625 0.08085-0.48317 0.1142-1.022 0.12769-1.9322 0.66268-2.1947 1.2898-0.16822 0.40188-0.14219 1.0672 0.05891 1.495 0.35968 0.76517 1.2767 1.6592 2.5787 2.5151 0.41898 0.27546 0.72744 0.50075 0.68575 0.50075-0.27619 0-5.5836-1.9536-8.4889-3.1249-4.101-1.6531-6.0808-2.5124-10.02-4.3491-0.61784-0.2881-1.777-0.84692-4.9956-2.4092-1.3599-0.6601-2.1703-1.0289-5.0797-2.3094-2.3799-1.0475-7.5171-2.8885-10.838-3.884-5.2701-1.5801-12.354-3.0819-17.611-3.7341-0.34925-0.043331-0.93953-0.11934-1.3121-0.16847-1.2443-0.1641-4.3654-0.46504-6.1386-0.59221-3.8695-0.27752-4.5949-0.29869-10.287-0.29869-6.3783 0-7.4413 0.03807-13.038 0.46871-4.7498 0.36544-12.273 1.3046-16.891 2.1084-0.25612 0.04457-1.0177 0.17622-1.6929 0.29249-3.8516 0.66325-8.7933 1.6707-13.589 2.7704-1.9127 0.43858-7.8646 1.9097-8.8475 2.1869-0.30269 0.08539-1.1597 0.31628-1.9048 0.51315-0.74507 0.19687-1.6026 0.42849-1.9053 0.51418-3.3917 0.96023-6.1469 1.7514-6.9427 1.9942-0.53552 0.16339-1.2971 0.39214-1.6929 0.50798-2.0984 0.61411-7.7662 2.4226-11.642 3.7145-3.1237 1.0413-4.2018 1.4105-7.4931 2.5678-4.0864 1.4368-4.4452 1.5646-4.4829 1.5963-0.0663 0.05563 0.27896 0.97479 0.38086 1.0139 0.10075 0.03867 0.33419-0.03943 3.2127-1.0702 0.93133-0.33351 1.9029-0.67668 2.159-0.76274 0.25611-0.08607 1.3501-0.46197 2.4309-0.83561 1.0808-0.37364 3.4238-1.1609 5.2069-1.7492 1.7831-0.58838 3.3371-1.1025 3.4535-1.1426 0.11642-0.04008 0.87853-0.28211 1.6934-0.53744 0.81492-0.25533 2.0914-0.65529 2.8365-0.88884 1.8948-0.59394 3.8482-1.1801 6.1076-1.8335 1.0645-0.30782 2.0498-0.59575 2.1895-0.63975 0.41363-0.13029 3.1486-0.8955 4.0638-1.1369 0.46567-0.12282 1.266-0.33538 1.7782-0.47284 1.2646-0.33935 6.2619-1.6039 7.6202-1.928 6.9631-1.6618 12.447-2.7504 19.896-3.9491 0.99876-0.16072 4.0375-0.58933 5.3764-0.75861 0.58208-0.07359 1.3442-0.17087 1.6934-0.21601 1.8534-0.23958 6.6335-0.69002 8.9746-0.84543 7.3087-0.48517 13.52-0.52336 19.769-0.12195 14.444 0.92774 27.091 3.9415 39.158 9.3312 1.1981 0.53509 2.3709 1.0932 5.4612 2.6004 1.6776 0.81819 4.9033 2.3299 5.334 2.4996 0.09315 0.0367 0.41718 0.18058 0.71985 0.31988 0.30268 0.1393 0.83569 0.37625 1.1849 0.52658s0.78783 0.34061 0.9741 0.42271c5.1682 2.2779 13.127 5.1663 18.881 6.8523 0.65192 0.19104 1.4331 0.42146 1.7358 0.51211 0.66094 0.19794 1.9769 0.54802 3.9791 1.0583 15.886 4.0492 32.226 5.3148 47.488 3.6783 0.44824-0.04807 1.1576-0.12373 1.5766-0.16795 2.213-0.23351 6.5473-0.8824 9.0594-1.3565 2.0166-0.38058 6.5157-1.3342 7.0171-1.4872 0.1477-0.04505 0.15464-0.01278 0.0977 0.44752-0.0338 0.2728-0.0729 0.50848-0.0873 0.52348-0.0343 0.03579-0.36485 0.07555-1.1431 0.13798-2.8571 0.22918-7.5188 2.5226-10.92 5.3723-1.3408 1.1233-2.6349 2.535-3.3404 3.6442-1.6296 2.5623-1.1965 4.6988 1.0568 5.2126h5.3e-4c0.65996 0.15022 2.2026 0.11185 3.0856-0.077 4.4464-0.951 9.1009-3.9828 11.285-7.3505 0.7208-1.1116 1.2178-2.7583 1.9622-6.4983l0.39532-1.987 0.50282-0.14263c0.27637-0.0786 1.1498-0.32141 1.9415-0.5395 0.79162-0.21809 2.0682-0.58706 2.8365-0.8201 0.76835-0.23305 1.6063-0.48507 1.8624-0.55966 0.25611-0.0746 1.609-0.52274 3.006-0.9958 4.5369-1.5363 7.2849-2.5819 11.345-4.3171 1.8294-0.78196 2.4534-1.0581 4.4881-1.9849 2.6265-1.1964 7.6328-3.699 10.075-5.0364 1.9849-1.0868 3.1784-1.7605 3.2106-1.8128 0.0462-0.07465-0.1557-0.49113-0.37414-0.77256-0.16134-0.20785-0.16884-0.20932-0.42271-0.06666-0.14219 0.0799-0.55324 0.30406-0.91312 0.49816-0.35989 0.1941-1.0159 0.55376-1.4583 0.79943-1.3264 0.7366-2.9598 1.5882-5.4281 2.8303-2.0632 1.0382-3.183 1.5786-5.579 2.6908-2.2746 1.0559-6.1927 2.7075-9.3555 3.9434-2.3563 0.92079-6.5934 2.3904-9.3555 3.2448-1.7882 0.5531-5.8986 1.7229-6.0534 1.7229-0.0832 0-0.0404-0.4083 0.17467-1.6573 0.21601-1.2546 0.27376-1.609 0.45992-2.8303 0.0532-0.34925 0.1296-0.84407 0.1695-1.1002 0.0399-0.25612 0.11578-0.75146 0.16898-1.1007s0.12938-0.84459 0.16898-1.1007c0.13958-0.90336 0.67799-4.6579 0.67799-4.7279 0-0.03901 0.61893-0.31006 1.3756-0.60255 2.2314-0.86251 6.0412-2.4568 8.4036-3.5166 2.1888-0.98188 7.5964-3.6294 9.7787-4.7878 0.62865-0.33371 1.2571-0.66625 1.3968-0.73897 0.1397-0.07272 0.84451-0.46322 1.5663-0.86764 0.72177-0.40443 1.5412-0.86106 1.8206-1.0149 2.4372-1.3422 6.7906-3.9728 10.202-6.1645 1.1022-0.70812 4.5401-3.0075 4.6457-3.1073 0.097-0.09165 0.0728-0.17156-0.14934-0.49454-0.14571-0.21176-0.30617-0.41018-0.35657-0.44132s-0.57393 0.26651-1.1632 0.66146c-10.215 6.8462-19.336 11.946-29.138 16.294-1.0943 0.48532-2.1041 0.93342-2.2438 0.9958-0.42147 0.18822-2.6446 1.0987-3.683 1.5084-0.53552 0.21132-1.2332 0.48698-1.5508 0.61236-0.31758 0.12538-0.59962 0.20602-0.62632 0.17932-0.0267-0.0267-7e-3 -0.40172 0.0439-0.83354 0.0875-0.743 0.59959-4.8763 0.7736-6.2461 0.0444-0.34925 0.16298-1.3399 0.26354-2.2014 0.10057-0.86148 0.22627-1.8904 0.27957-2.2862l0.0966-0.71934 2.2438-1.1431c1.954-0.99549 3.1792-1.6408 5.7149-3.0091 2.3311-1.2579 6.8106-3.8974 9.9487-5.8627 1.8747-1.174 7.6652-5.0179 9.017-5.9857 1.0562-0.75613 2.2238-1.5856 2.4458-1.7374 1.5879-1.0851 6.6692-4.9469 10.15-7.7148l0.1726-0.13746-0.17415-0.24391c-0.096-0.13395-0.26939-0.33141-0.38499-0.43925l-0.2098-0.19637-2.0629 1.6242c-6.2546 4.9245-12.928 9.6468-19.363 13.703-3.2892 2.0729-7.584 4.6072-10.132 5.9779-0.32597 0.17538-0.78381 0.4255-1.017 0.55604-1.6659 0.93262-6.0559 3.1523-6.1159 3.0923-0.0257-0.02567 0.0939-1.1811 0.26561-2.5673 0.17178-1.3862 0.34694-2.9201 0.38964-3.4091 0.0426-0.48895 0.0995-1.0034 0.1261-1.1431 0.0646-0.33969-0.0573-0.49863-0.39585-0.51625-0.15413-8e-3 -0.43691-0.04185-0.62838-0.07545l-0.3483-0.06098-0.18552 1.2154c-0.10204 0.6685-0.38499 2.6251-0.6289 4.3481l-0.44339 3.1326-0.67386 0.34003c-1.0918 0.55129-3.1867 1.4864-5.7113 2.5487-1.0478 0.44086-2.0766 0.87478-2.2862 0.96428-0.48835 0.20857-3.1745 1.2486-4.2757 1.6557-2.7493 1.0163-6.6572 2.2896-9.7074 3.1631-1.6564 0.47435-5.3862 1.4443-5.5578 1.4454-0.0766 5.29e-4 -0.0959-0.08284-0.0646-0.27492 0.0247-0.15134 0.12224-0.84663 0.21704-1.5451s0.26612-1.8414 0.38034-2.5399c0.20038-1.2253 0.55955-3.5586 0.67334-4.3744 0.0303-0.21738 0.10068-0.43088 0.15658-0.47439 0.0559-0.04351 0.61624-0.25429 1.2449-0.46819 8.348-2.8405 17.108-6.8559 25.95-11.895 1.0877-0.61986 4.3458-2.5492 5.0374-2.9828 0.34925-0.21892 1.0923-0.68299 1.6511-1.0315 2.7886-1.739 5.4051-3.4723 8.5514-5.6648 4.311-3.0041 7.9833-5.7394 12.139-9.0429 4.2199-3.3542 10.47-8.654 13.642-11.568 1.5131-1.39 1.8229-1.6871 1.8438-1.7689 0.013-0.05092-0.14844-0.26189-0.35916-0.4687l-0.38344-0.3762-0.35811 0.33486c-0.19693 0.1842-0.37774 0.35481-0.40205 0.37879-0.0244 0.02398-0.63524 0.57358-1.357 1.2216-0.72178 0.64805-1.617 1.4529-1.9895 1.7885-0.37254 0.33565-0.87357 0.77674-1.1136 0.97978-0.24008 0.20305-1.2117 1.0375-2.159 1.8547-6.7398 5.8132-13.595 11.145-20.515 15.955-1.6296 1.1327-5.0588 3.4243-6.2906 4.2039-2.0047 1.2687-3.7522 2.3611-4.3388 2.713-2.4624 1.4772-4.3854 2.5892-6.2652 3.6225-0.53552 0.29436-1.2631 0.69865-1.617 0.89865-1.4829 0.83811-7.4055 3.7842-9.6015 4.7759-4.2419 1.9156-8.3393 3.5559-12.505 5.0064-0.31157 0.10849-0.58977 0.17398-0.61857 0.14521-0.0288-0.02877 0.061-0.98084 0.19947-2.1151 0.27259-2.2326 0.34146-2.8966 0.65113-6.2787l0.0527-0.57619 0.43718-0.20154c0.95523-0.44031 2.5224-1.1441 2.5476-1.1441 0.11771 0 5.0753-2.4322 6.8223-3.3471 12.508-6.5504 25.077-15.231 38.058-26.282 1.1545-0.98295 4.5112-3.9037 4.918-4.2793 0.0506-0.04676 0.45016-0.40879 0.8878-0.8046 2.8674-2.5932 5.5422-5.0864 8.0791-7.5293 2.6208-2.5237 8.9193-8.9167 8.8816-9.015-0.0221-0.0577-0.20643-0.24395-0.40979-0.41393zm-205.14 39.035c0.14146-7.937e-4 0.33285 0.00201 0.5395 0.00878l0.75137 0.024809-0.80408 0.28784c-0.44238 0.15832-0.85479 0.30612-0.91622 0.32866-0.085781 0.031451-0.080341-0.034529 0.02376-0.2837 0.07456-0.17845 0.14892-0.33754 0.16485-0.35347 0.00799-8e-3 0.099351-0.012123 0.24081-0.01292zm6.6802 0.039791c0.85193 0.00867 4.1673 0.16958 5.7867 0.28732 6.6181 0.48118 12.839 1.3959 19.288 2.837 0.68974 0.15413 1.2696 0.29599 1.2888 0.31523 0.01923 0.019235-0.22643 0.64257-0.5457 1.3849-0.31927 0.74236-0.78366 1.8929-1.0325 2.5564-0.50582 1.3489-0.41161 1.2714-1.3033 1.0687-1.8755-0.42645-7.1021-1.2874-9.6945-1.5968-2.1952-0.26203-2.9987-0.34608-4.7837-0.5023-3.7-0.32381-6.236-0.4495-10.583-0.52452-1.7695-0.03054-3.2309-0.067112-3.2473-0.081132-0.016457-0.014018 0.27591-0.17903 0.64957-0.3669 0.92138-0.46326 2.0759-1.1442 2.6402-1.5565 1.5078-1.1019 2.1195-2.4979 1.5027-3.4298-0.12646-0.1911-0.20205-0.36461-0.16795-0.38551 9e-3 -0.00554 0.080351-0.00744 0.20205-0.0062zm-9.0615 0.014986-0.1235 0.28577c-0.11868 0.27391-2.0416 4.5273-2.4097 5.3299l-0.17777 0.38757-1.5922 0.10335c-2.9624 0.19264-6.1677 0.48398-9.0372 0.82114-0.68005 0.0799-1.2553 0.12701-1.278 0.10439-0.02262-0.02263 0.41765-1.024 0.97824-2.2252 0.56059-1.2012 1.004-2.1994 0.98547-2.218-0.0406-0.040603-1.4669 0.27152-1.7735 0.38809-0.17498 0.066524-0.42669 0.49974-1.2966 2.2319l-1.079 2.1497-0.76894 0.10439c-0.42276 0.05754-1.2256 0.17695-1.7844 0.2651-0.5588 0.08816-1.5304 0.24073-2.159 0.339-1.0149 0.15865-1.9611 0.31916-3.4716 0.5886-0.25612 0.04568-0.86135 0.15977-1.3451 0.25373-0.48379 0.09396-0.91391 0.17053-0.9555 0.17053s0.0754-0.19994 0.25994-0.44442c0.38833-0.51446 0.51676-0.81125 0.51676-1.1958 0-0.77449-0.88557-0.92402-2.4846-0.41961-0.66164 0.20871-1.9059 0.77955-2.172 0.99684-0.06985 0.05705-0.27399 0.19196-0.45372 0.29972l-0.32711 0.19637 0.33848-0.49971c0.45116-0.66591 0.90353-1.5826 1.0795-2.188 0.13881-0.47755 0.1373-1.0942-0.0047-1.665-0.06262-0.2519-0.01032-0.28546 0.58446-0.37465 0.37494-0.056227 0.39171-0.04984 0.39171 0.14779 0 0.11358 0.09868 0.29897 0.21911 0.41186 0.19422 0.18207 0.29211 0.20442 0.86764 0.19792 1.086-0.012195 2.8514-0.68106 3.9181-1.4847 0.25085-0.18899 0.54589-0.37908 0.65577-0.4222 0.16528-0.064857 3.102-0.56967 5.3459-0.91881 4.9538-0.77076 11.943-1.448 17.129-1.6598zm4.0122 1.3467c0.53761 0.00664 0.90669 0.18748 0.95601 0.5178 0.094308 0.63167-1.6518 2.3438-3.7181 3.6458-0.53187 0.33512-0.59174 0.35295-1.2154 0.35295-0.49189 0-0.64537-0.026587-0.61236-0.10594 0.29421-0.70731 1.2331-2.6354 1.4035-2.882 0.31361-0.4538 1.3418-1.123 2.0696-1.3472 0.41118-0.12669 0.79416-0.18537 1.1167-0.18138zm32.672 4.2452c0.05-0.00956 0.14035 0.044849 0.33435 0.17828 1.5314 1.0533 4.0222 2.081 5.981 2.4676 2.7904 0.55069 4.8363 0.41036 5.904-0.40463 0.37277-0.28454 0.40769-0.2944 0.69453-0.19585 0.45621 0.15675 1.8451 0.66876 2.4185 0.89142 0.2794 0.1085 0.86968 0.33778 1.3121 0.50953 3.3044 1.2829 7.1359 3.0136 11.981 5.4121 2.0955 1.0374 4.009 1.9739 4.2525 2.0815 0.40416 0.1786 0.43819 0.21485 0.38809 0.41496-0.03015 0.12056-0.325 1.1876-0.65474 2.3714-0.32975 1.1838-0.6376 2.1628-0.6842 2.1751-0.10091 0.02662-0.40137-0.11451-3.0246-1.419-4.566-2.2707-7.7798-3.7359-11.115-5.0679-5.7285-2.2881-10.804-3.9288-16.658-5.3842-1.402-0.34858-2.3497-0.6241-2.3497-0.68316-1.1e-4 -0.05443 0.25116-0.77835 0.5581-1.6087 0.30695-0.83033 0.57793-1.5755 0.60203-1.6557 0.01456-0.048425 0.02994-0.076944 0.05994-0.082682zm-74.506 0.040824c0.11644-0.00484 0.14753 0.057546 0.21808 0.2713 0.21741 0.65875-0.29517 2.0741-1.2836 3.544-0.54336 0.80795-1.6922 2.2645-2.0102 2.5487-0.11717 0.10469-1.0216 0.38942-2.4877 0.78342-1.267 0.34049-2.5705 0.69302-2.8965 0.78342-2.3116 0.6411-2.3381 0.64403-1.7565 0.21084 0.44427-0.33089 1.4234-1.3609 1.7219-1.8113 0.13739-0.20733 0.29378-0.52328 0.34727-0.70177 0.08536-0.28494 0.07637-0.35217-0.0739-0.55397-0.11072-0.14869-0.29595-0.25717-0.52503-0.30644-0.68096-0.14644-2.488 0.33534-4.963 1.3229-0.6985 0.27872-1.449 0.57774-1.6681 0.66456-0.69477 0.27524-0.42955-0.02246 0.93069-1.0444 1.1119-0.83533 3.8048-2.4508 5.0979-3.0582 0.54797-0.2574 1.399-0.52155 4.53-1.4056 0.78042-0.22036 4.3279-1.15 4.6695-1.2237 0.06242-0.013457 0.11053-0.022156 0.14935-0.02377zm39.292 1.373 4.8261 0.0072c2.6751 0.0039 5.562 0.05188 6.4771 0.108 5.2514 0.32204 8.2061 0.60863 12.378 1.2004 1.9015 0.26975 5.861 0.95664 7.582 1.3152 0.1048 0.02183 0.19069 0.08135 0.19069 0.13229 0 0.05094-0.36796 1.2218-0.81752 2.6019-0.44954 1.3801-0.83985 2.5317-0.86765 2.5595-0.02775 0.02784-0.2008 0.01739-0.38447-0.02325-2.2964-0.50811-7.7157-1.2496-11.901-1.6283-4.7385-0.42885-6.7256-0.51001-12.53-0.51211-6.0788-0.0022-8.9482 0.11169-14.139 0.56121-0.67522 0.05848-1.4168 0.10765-1.6474 0.10955-0.40758 0.0031-0.42066-0.0047-0.47697-0.2775-0.14264-0.69107-0.81234-1.0315-2.0283-1.0315-1.2923 0-2.7724 0.39405-4.8436 1.2904-0.54724 0.23681-1.0152 0.4106-1.0397 0.38602-0.02458-0.02458 0.0937-0.34534 0.26251-0.71262 0.58838-1.2801 1.3303-2.8754 1.7725-3.8122 0.51663-1.0945 0.1799-0.93907 2.6246-1.2144 3.0172-0.33979 5.0291-0.52718 7.7468-0.72192 0.30268-0.02169 0.88394-0.06371 1.2914-0.09354 0.49097-0.03595 0.74052-0.02473 0.74052 0.03359 0 0.0484-0.13059 0.36776-0.29042 0.70952-0.44682 0.95538-0.89605 2.0454-0.85835 2.0831 0.03207 0.03207 2.3663-1.1125 2.5461-1.2485 0.046569-0.03522 0.82724-0.45963 1.7353-0.9431zm-19.13 1.6645c0.0606-0.0036 0.09879-0.0032 0.11162 0.0021 0.03554 0.0147-0.59315 1.3793-1.3968 3.0324-0.80367 1.6531-1.4739 3.0382-1.4898 3.0778-0.01593 0.03968-0.92316 0.22006-2.0159 0.40049-3.1512 0.52032-8.7313 1.5924-11.597 2.2283-3.6793 0.81651-6.7252 1.5494-9.9188 2.3864-0.96178 0.25209-1.7788 0.45837-1.8159 0.45837-0.1276 0 0.11448-0.18093 1.6795-1.2532 3.4624-2.3722 6.4864-4.7137 8.3339-6.4539 0.28717-0.27049 0.59794-0.53263 0.69092-0.58239 0.28452-0.15227 2.8108-0.70849 6.9634-1.5327 3.5171-0.69809 9.5456-1.7099 10.455-1.7637zm-15.326 1.1234c0.03408 0.0064 0.03271 0.08731-0.0062 0.24236-0.02949 0.11751-0.1263 0.23249-0.21549 0.2558-0.20558 0.05376-0.2033 0.01572 0.01654-0.29301 0.10199-0.14325 0.17108-0.21153 0.20516-0.20516zm68.124 0.38706c0.22223 0 4.3717 1.0488 6.2528 1.5803 3.1385 0.88671 7.0887 2.1795 9.6521 3.159 1.9862 0.75892 2.5108 0.96352 3.4711 1.3544 0.58208 0.23696 1.1347 0.46529 1.2278 0.50746 0.09313 0.04217 0.58848 0.25511 1.1007 0.47284 1.2138 0.51595 1.3858 0.5933 3.3864 1.5234 1.6482 0.76631 7.9683 3.8724 8.0543 3.9584 0.03972 0.03972-0.21173 0.93632-1.0433 3.7217-0.17726 0.5937-0.36009 1.079-0.40669 1.079-0.04657-2.1e-5 -1.1327-0.5177-2.4133-1.1508-3.1673-1.5659-4.4054-2.1607-5.7996-2.7854-7.9656-3.569-15.507-6.075-23.706-7.8776-0.97754-0.21491-1.7836-0.39756-1.7906-0.40566-0.012-0.01341 0.34705-1.0042 1.4697-4.0576 0.30134-0.81962 0.43234-1.0795 0.54467-1.0795zm-29.264 3.7042c3.9675-0.0085 7.8484 0.12595 11.302 0.40773 3.3137 0.27035 4.7733 0.42794 8.17 0.88263 1.3969 0.18699 5.4213 0.87165 5.4896 0.93379 0.03907 0.03554-0.06939 0.53543-0.24133 1.111-0.17193 0.57561-0.42532 1.4272-0.56276 1.8929-0.45835 1.553-0.67382 2.2438-0.70022 2.2438-0.01437 0-0.3456-0.05518-0.73587-0.12299-1.1921-0.20712-4.992-0.72507-6.5092-0.88728-5.5693-0.59544-9.2805-0.78523-15.325-0.78393-5.4575 0.0012-8.7978 0.144-14.351 0.61495-2.7332 0.2318-7.1019 0.7378-10.244 1.186-0.9779 0.13947-2.0068 0.29039-2.2862 0.3359s-0.64111 0.10441-0.80408 0.13074c-0.18773 0.03032-0.2655 0.01866-0.21188-0.03204 0.17986-0.17003 4.8102-2.8965 4.9191-2.8965 0.02003 0 0.59797-0.31247 1.2842-0.69453 2.4645-1.3722 3.5428-2.1212 4.3346-3.0096l0.4222-0.47336 1.0392-0.10594c4.6649-0.47495 9.9094-0.72233 15.01-0.73329zm-20.888 1.4025c0.19485-0.0075 0.27027 0.0106 0.27027 0.05064 0 0.13841-1.2312 1.349-1.9601 1.927-0.92255 0.73168-2.5614 1.8995-3.3631 2.3968-0.37676 0.23367-0.7076 0.4253-0.73484 0.4253-0.09993 0 0.07941-0.4172 0.89142-2.0743 1.11-2.2653 1.0474-2.2092 2.7259-2.4546 1.1892-0.17387 1.8457-0.25821 2.1704-0.27078zm-6.2833 0.91829c0.04833-5.03e-4 0.07885 0.0029 0.0863 0.01033 0.02979 0.02979-0.52786 1.2652-1.2392 2.7456-0.71134 1.4804-1.3625 2.8463-1.4469 3.0355l-0.154 0.34416-0.82837 0.14418c-2.9532 0.51486-8.6465 1.6646-11.624 2.3471-3.5688 0.81826-8.8859 2.1395-11.261 2.7978-2.1259 0.58926-6.3573 1.7811-6.9004 1.9436-0.92899 0.27798-1.5693 0.46822-2.0743 0.6165-1.5738 0.46212-6.1672 1.9046-8.8181 2.7693-1.7069 0.55679-3.1339 1.0123-3.1709 1.0123-0.12324 0 0.0886-0.15779 0.51676-0.38499 0.39214-0.20808 3.4637-1.9819 4.5294-2.6159 0.25611-0.15234 1.1328-0.66981 1.9477-1.1498 1.2686-0.74721 8.1987-4.9009 11.26-6.7489 0.53552-0.32324 1.1263-0.62735 1.3126-0.67593 0.18627-0.04858 1.0433-0.28173 1.9048-0.5178 2.7513-0.75394 7.4763-1.9656 9.3136-2.3885 6.4226-1.4781 10.479-2.2945 15.853-3.191 0.34004-0.05674 0.64719-0.09201 0.7922-0.09353zm53.997 0.26717c0.01894-0.01894 0.75319 0.12376 1.6319 0.31678 0.87873 0.19301 1.7501 0.38367 1.9363 0.42375 0.95496 0.20546 4.1527 1.0436 5.673 1.4872 0.5588 0.16306 1.2064 0.3486 1.4392 0.41238 0.59807 0.16383 5.0357 1.6371 6.3366 2.1037 3.4022 1.2204 7.6574 3.037 11.468 4.8953 4.1031 2.0011 5.0214 2.4417 5.0906 2.4417 0.03939 0 0.1143 0.05141 0.1664 0.1142 0.07139 0.08602 0.04058 0.28944-0.12454 0.82527-0.12054 0.39122-0.37102 1.2064-0.55656 1.8118-0.18552 0.60537-0.35222 1.1484-0.37052 1.2066-0.06415 0.20434-0.25837 0.06515-1.1751-0.84388-3.6775-3.6465-9.3535-6.2212-11.064-5.0188-0.27145 0.19081-0.39861 0.35925-0.51056 0.67696-0.09062 0.25722-0.19232 0.41244-0.25942 0.39532-0.06074-0.01548-0.92945-0.33474-1.9306-0.70952-5.7598-2.1561-12.729-4.1061-18.584-5.1997-0.4191-0.07827-0.79521-0.17159-0.83561-0.20722-0.0404-0.03563 0.04141-0.42014 0.1819-0.85473 0.35766-1.1064 1.4462-4.2356 1.4878-4.2773zm102.65 0.85886c0.0254 0.02533-0.12973 1.2855-0.48989 3.9827-0.23331 1.747-0.37027 2.632-0.41497 2.683-0.092 0.10521-4.5636 1.3959-6.6549 1.9208-4.0187 1.0087-8.1429 1.7962-12.446 2.3766-1.987 0.26798-5.4677 0.56482-8.0011 0.68213-1.6859 0.07807-5.6494 0.09018-7.0998 0.0217-0.59497-0.02809-0.62046-0.03772-0.57206-0.21601 0.02784-0.10263 0.09299-0.42467 0.14469-0.71572 0.05166-0.29104 0.1378-0.52994 0.1912-0.5302 0.18848-0.0011 3.2353-0.24933 3.653-0.29766 2.7219-0.31494 4.3233-0.55142 6.3386-0.93638 7.7981-1.4895 15.414-4.1155 23.503-8.1049 0.99961-0.49294 1.8314-0.88269 1.848-0.8661zm-63.955 0.04599c0.05806 0 0.48345 0.15445 0.94516 0.34313 0.46173 0.18867 1.6211 0.62316 2.5761 0.96583 6.3452 2.2769 12.775 3.5796 19.896 4.0313 1.4627 0.09276 8.6341 0.05908 9.7782-0.04599l0.42375-0.03876-0.63511 0.21446c-0.64273 0.2175-2.6767 0.82597-4.5227 1.3529-0.55498 0.15841-1.0975 0.34599-1.2051 0.41651-0.31116 0.20389-0.45882 0.59174-0.54312 1.4247-0.04321 0.4268-0.14246 1.2071-0.22066 1.7337-0.1019 0.68616-0.17994 0.97547-0.27544 1.0206-0.17864 0.08446-2.3857-0.10362-4.917-0.41858-1.4288-0.17779-1.7798-0.2302-3.683-0.5519-2.6458-0.44724-6.9627-1.416-8.4667-1.9001-0.1397-0.04497-0.95908-0.29567-1.8206-0.55707-2.9305-0.88922-7.9018-2.7294-8.3488-3.0903-0.09475-0.07648 0.09897-1.1592 0.58911-3.2918 0.11239-0.48895 0.23117-1.0511 0.26407-1.249 0.03309-0.19889 0.10706-0.35967 0.16536-0.35967zm-1.2733 6.1066c0.04126-0.0013 0.0903 0.01746 0.15296 0.04703 0.35381 0.16691 1.1985 0.5161 1.974 0.81545 6.7491 2.6053 12.681 4.1365 19.896 5.1372 1.2964 0.17978 4.5672 0.50558 5.101 0.50798 0.1552 7.94e-4 0.19068 0.04843 0.19068 0.25632 0 0.28089-0.9944 5.345-1.1095 5.6503-0.03951 0.10477-0.10136 0.18423-0.13746 0.17673-0.03607-0.0075-0.19874-0.0286-0.36174-0.04702-0.16298-0.01841-0.90599-0.1252-1.6511-0.23719-8.0212-1.2057-16.27-3.526-23.864-6.7128-0.78487-0.32938-1.4453-0.61696-1.4676-0.63924-0.02227-0.02225 0.15015-0.81529 0.38292-1.7622s0.48996-2.0162 0.57206-2.3761c0.1428-0.62627 0.19714-0.81245 0.32091-0.81649zm92.985 1.6826c0.0729 0 0.0188 0.56689-0.18293 1.9131-0.11797 0.78719-0.28869 1.9459-0.37879 2.5745-0.14265 0.99484-0.56527 3.8323-0.97772 6.5614-0.0704 0.46567-0.14616 0.9295-0.16795 1.0309-0.0465 0.21652-0.20825 0.28368-2.8727 1.1844-3.7441 1.2658-8.4057 2.6308-11.521 3.3734-0.48719 0.11615-1.2952 0.30883-1.7958 0.4284-1.9118 0.45665-4.7607 1.0294-7.3872 1.4852-1.0101 0.17528-1.229 0.20994-3.1331 0.49558-1.1494 0.17243-1.5239 0.20524-1.5239 0.13384 0-0.02125 0.15071-0.64016 0.33487-1.3756 0.51693-2.0642 0.88675-4.01 1.2728-6.7024 0.0893-0.62242 0.17393-1.1438 0.18863-1.1586 0.0147-0.01474 0.99765-0.27551 2.1844-0.57981 5.2045-1.3346 9.1597-2.5638 13.936-4.3315 2.9425-1.0891 5.6201-2.1716 8.4155-3.4013 1.4335-0.63061 1.6823-0.74298 2.6991-1.2196 0.48329-0.22654 0.89272-0.41186 0.91002-0.41186zm-28.896 0.17002c0.0777-7.94e-4 0.063 0.12171-0.28112 2.3063-0.0458 0.29104-0.16422 1.0436-0.26252 1.6723-0.41592 2.6607-0.82307 4.9282-0.89917 5.0043-0.1002 0.10022-3.2335 0.72014-5.6978 1.1276-3.864 0.63885-7.0897 1.0062-11.261 1.2821-1.7923 0.11854-7.7792 0.2149-9.7369 0.15658-1.515-0.04513-4.1112-0.21138-5.9474-0.38086-0.96615-0.08917-1.8187-0.16226-1.8945-0.16226-0.106 0-0.12604-0.05386-0.08733-0.23306 0.02764-0.12806 0.24358-1.1278 0.48007-2.2221 0.4067-1.882 0.76068-3.6018 0.76068-3.6959 0-0.02349 1.0957-0.01619 2.4345 0.01654 6.2343 0.15238 13.803-0.54639 20.678-1.9094 3.3923-0.67253 7.9489-1.8189 11.093-2.791 0.30268-0.0936 0.58215-0.17078 0.62115-0.17105zm-65.708 4.2669c0.01111-0.01109 0.42004 0.15025 0.90899 0.35864 8.064 3.4369 17.547 6.0659 25.809 7.1551l0.7891 0.10439-0.05374 0.30127c-0.0563 0.31316-1.1592 4.8028-1.3167 5.3604h5.3e-4c-0.08032 0.2843-0.11839 0.31659-0.36122 0.31109-0.85153-0.01918-7.3391-1.6163-11.151-2.745-4.9807-1.4749-11.119-3.7518-15.593-5.7841l-0.56431-0.25632 0.29456-0.83251c0.16204-0.45772 0.50231-1.5345 0.75603-2.3926 0.2537-0.85816 0.47052-1.5692 0.48162-1.5803zm64.033 6.0808c0.0492 0.0492-0.0572 0.68809-0.68575 4.1295-0.15737 0.86149-0.30968 1.7-0.33848 1.8629s-0.0902 0.49656-0.13643 0.74104l-0.0837 0.44442-0.69247 0.0011c-3.4052 0.0066-8.0344 1.0481-10.73 2.4138h-5.3e-4l-0.41341 0.20981-2.7755-0.01291c-2.8084-0.01278-4.4793-0.06902-7.0936-0.23926-3.1204-0.20321-7.1055-0.63474-9.864-1.0682-2.0079-0.31548-2.4409-0.38748-2.8572-0.47542-0.24448-0.05165-0.44442-0.10721-0.44442-0.12351 0-0.0163 0.11694-0.51518 0.25993-1.1085 0.60053-2.4917 1.023-4.3166 1.0687-4.6157 0.02688-0.17576 0.07217-0.33383 0.10077-0.3514 0.02865-0.01757 0.37624 0.0013 0.77205 0.04186 3.8293 0.39348 6.5831 0.52692 10.837 0.52452 4.1943-0.0024 6.7847-0.12915 10.869-0.5302 1.0892-0.10697 4.0123-0.46952 4.7945-0.59479 3.045-0.48766 3.9296-0.63937 5.5227-0.9462 1.0117-0.19486 1.8626-0.33101 1.8908-0.30282zm28.509 3.1466c0.082 6.8e-5 0.061 0.05545 0.061 0.13591 0 0.09919-0.0967 0.77793-0.21498 1.5084-0.11825 0.73051-0.28911 1.7858-0.3793 2.3446-0.66113 4.0964-1.3623 8.2853-1.3958 8.3395-0.0221 0.03575-0.14525 0.08353-0.27389 0.10594-0.12863 0.02241-1.0911 0.23369-2.1389 0.46974-7.7072 1.7364-14.609 2.6797-22.733 3.1073-2.5318 0.13322-9.6853 0.15504-12.065 0.03669-10.253-0.51-19.308-1.9285-29.741-4.6597-0.34852-0.09114-0.35159-0.24546-0.0052-0.24546 0.76142 0 2.1466-0.60307 2.6572-1.157 0.54039-0.58627 0.63089-0.86368 1.2382-3.775 0.0607-0.29102 0.07854-0.29109 1.6847-0.01707 1.9518 0.33302 4.5375 0.68652 6.7252 0.91932 3.6323 0.38653 5.7379 0.53015 9.4402 0.64389 1.6299 0.05008 3.0714 0.09882 3.2039 0.10852 0.22864 0.01669 0.2135 0.03802-0.30127 0.41496-0.85255 0.62428-1.8182 1.6868-2.1265 2.3404-0.33565 0.71156-0.35745 1.3825-0.0646 1.9875 0.86879 1.7947 4.6022 2.1727 9.2366 0.93534 3.3781-0.9019 6.7011-2.771 7.737-4.3522 0.30762-0.46957 1.0674-2.0703 1.0682-2.2505 2.7e-4 -0.08872 0.22763-0.1318 1.9901-0.37775 0.61145-0.08533 1.2612-0.18426 2.1797-0.33124 0.79176-0.1267 4.2476-0.74991 4.9744-0.8971 2.1901-0.44354 6.5124-1.4587 8.0858-1.8991 2.6261-0.73509 4.9363-1.4076 5.9691-1.7384 0.67521-0.21623 1.3609-0.43155 1.5239-0.47852 0.16297-0.04698 0.98184-0.3251 1.82-0.61753 1.2844-0.44809 1.7077-0.60163 1.8443-0.60152zm-68.98 5.1594c0.04362-0.01386 0.51764 0.0642 1.0532 0.17363l0.97358 0.19895-0.01344 0.27492c-0.0075 0.15109-0.04565 0.30466-0.08475 0.34158-0.03915 0.03692-0.50664-0.16444-1.0392-0.44804-0.53257-0.28359-0.93295-0.52719-0.88935-0.54105z" fill="#edcc62"/>
 </g>
</svg>
